G04 EAGLE Gerber RS-274X export*
G75*
%MOMM*%
%FSLAX34Y34*%
%LPD*%
%INCopper Layer 2*%
%IPPOS*%
%AMOC8*
5,1,8,0,0,1.08239X$1,22.5*%
G01*
%ADD10C,1.422400*%
%ADD11C,1.244600*%
%ADD12C,1.960000*%
%ADD13C,4.191000*%
%ADD14C,0.609600*%

G36*
X758308Y2556D02*
X758308Y2556D01*
X758427Y2563D01*
X758465Y2576D01*
X758506Y2581D01*
X758616Y2624D01*
X758729Y2661D01*
X758764Y2683D01*
X758801Y2698D01*
X758897Y2767D01*
X758998Y2831D01*
X759026Y2861D01*
X759059Y2884D01*
X759135Y2976D01*
X759216Y3063D01*
X759236Y3098D01*
X759261Y3129D01*
X759312Y3237D01*
X759370Y3341D01*
X759380Y3381D01*
X759397Y3417D01*
X759419Y3534D01*
X759449Y3649D01*
X759453Y3709D01*
X759457Y3729D01*
X759455Y3750D01*
X759459Y3810D01*
X759459Y504190D01*
X759444Y504308D01*
X759437Y504427D01*
X759424Y504465D01*
X759419Y504506D01*
X759376Y504616D01*
X759339Y504729D01*
X759317Y504764D01*
X759302Y504801D01*
X759233Y504897D01*
X759169Y504998D01*
X759139Y505026D01*
X759116Y505059D01*
X759024Y505135D01*
X758937Y505216D01*
X758902Y505236D01*
X758871Y505261D01*
X758763Y505312D01*
X758659Y505370D01*
X758619Y505380D01*
X758583Y505397D01*
X758466Y505419D01*
X758351Y505449D01*
X758291Y505453D01*
X758271Y505457D01*
X758250Y505455D01*
X758190Y505459D01*
X3810Y505459D01*
X3692Y505444D01*
X3573Y505437D01*
X3535Y505424D01*
X3494Y505419D01*
X3384Y505376D01*
X3271Y505339D01*
X3236Y505317D01*
X3199Y505302D01*
X3103Y505233D01*
X3002Y505169D01*
X2974Y505139D01*
X2941Y505116D01*
X2865Y505024D01*
X2784Y504937D01*
X2764Y504902D01*
X2739Y504871D01*
X2688Y504763D01*
X2630Y504659D01*
X2620Y504619D01*
X2603Y504583D01*
X2581Y504466D01*
X2551Y504351D01*
X2547Y504291D01*
X2543Y504271D01*
X2545Y504250D01*
X2541Y504190D01*
X2541Y3810D01*
X2556Y3692D01*
X2563Y3573D01*
X2576Y3535D01*
X2581Y3494D01*
X2624Y3384D01*
X2661Y3271D01*
X2683Y3236D01*
X2698Y3199D01*
X2767Y3103D01*
X2831Y3002D01*
X2861Y2974D01*
X2884Y2941D01*
X2976Y2865D01*
X3063Y2784D01*
X3098Y2764D01*
X3129Y2739D01*
X3237Y2688D01*
X3341Y2630D01*
X3381Y2620D01*
X3417Y2603D01*
X3534Y2581D01*
X3649Y2551D01*
X3709Y2547D01*
X3729Y2543D01*
X3750Y2545D01*
X3810Y2541D01*
X758190Y2541D01*
X758308Y2556D01*
G37*
%LPC*%
G36*
X720496Y454024D02*
X720496Y454024D01*
X711861Y457601D01*
X705251Y464211D01*
X701674Y472846D01*
X701674Y482194D01*
X705251Y490829D01*
X711861Y497439D01*
X720496Y501016D01*
X729844Y501016D01*
X738479Y497439D01*
X745089Y490829D01*
X748666Y482194D01*
X748666Y472846D01*
X745089Y464211D01*
X738479Y457601D01*
X729844Y454024D01*
X720496Y454024D01*
G37*
%LPD*%
%LPC*%
G36*
X25806Y454024D02*
X25806Y454024D01*
X17171Y457601D01*
X10561Y464211D01*
X6984Y472846D01*
X6984Y482194D01*
X10561Y490829D01*
X17171Y497439D01*
X25806Y501016D01*
X35154Y501016D01*
X43789Y497439D01*
X50399Y490829D01*
X53976Y482194D01*
X53976Y472846D01*
X50399Y464211D01*
X43789Y457601D01*
X35154Y454024D01*
X25806Y454024D01*
G37*
%LPD*%
%LPC*%
G36*
X725576Y6984D02*
X725576Y6984D01*
X716941Y10561D01*
X710331Y17171D01*
X706754Y25806D01*
X706754Y35154D01*
X710331Y43789D01*
X716941Y50399D01*
X725576Y53976D01*
X734924Y53976D01*
X743559Y50399D01*
X750169Y43789D01*
X753746Y35154D01*
X753746Y25806D01*
X750169Y17171D01*
X743559Y10561D01*
X734924Y6984D01*
X725576Y6984D01*
G37*
%LPD*%
%LPC*%
G36*
X25806Y6984D02*
X25806Y6984D01*
X17171Y10561D01*
X10561Y17171D01*
X6984Y25806D01*
X6984Y35154D01*
X10561Y43789D01*
X17171Y50399D01*
X25806Y53976D01*
X35154Y53976D01*
X43789Y50399D01*
X50399Y43789D01*
X53976Y35154D01*
X53976Y25806D01*
X50399Y17171D01*
X43789Y10561D01*
X35154Y6984D01*
X25806Y6984D01*
G37*
%LPD*%
%LPC*%
G36*
X520745Y203359D02*
X520745Y203359D01*
X516136Y205268D01*
X512608Y208796D01*
X510699Y213405D01*
X510699Y218395D01*
X512608Y223004D01*
X516136Y226532D01*
X520745Y228441D01*
X525735Y228441D01*
X530344Y226532D01*
X533872Y223004D01*
X535781Y218395D01*
X535781Y213405D01*
X533872Y208796D01*
X530344Y205268D01*
X525735Y203359D01*
X520745Y203359D01*
G37*
%LPD*%
%LPC*%
G36*
X83865Y203359D02*
X83865Y203359D01*
X79256Y205268D01*
X75728Y208796D01*
X73819Y213405D01*
X73819Y218395D01*
X75728Y223004D01*
X79256Y226532D01*
X83865Y228441D01*
X88855Y228441D01*
X93464Y226532D01*
X96992Y223004D01*
X98901Y218395D01*
X98901Y213405D01*
X96992Y208796D01*
X93464Y205268D01*
X88855Y203359D01*
X83865Y203359D01*
G37*
%LPD*%
%LPC*%
G36*
X520745Y431959D02*
X520745Y431959D01*
X516136Y433868D01*
X512608Y437396D01*
X510699Y442005D01*
X510699Y446995D01*
X512608Y451604D01*
X516136Y455132D01*
X520745Y457041D01*
X525735Y457041D01*
X530344Y455132D01*
X533872Y451604D01*
X535781Y446995D01*
X535781Y442005D01*
X533872Y437396D01*
X530344Y433868D01*
X525735Y431959D01*
X520745Y431959D01*
G37*
%LPD*%
%LPC*%
G36*
X83865Y431959D02*
X83865Y431959D01*
X79256Y433868D01*
X75728Y437396D01*
X73819Y442005D01*
X73819Y446995D01*
X75728Y451604D01*
X79256Y455132D01*
X83865Y457041D01*
X88855Y457041D01*
X93464Y455132D01*
X96992Y451604D01*
X98901Y446995D01*
X98901Y442005D01*
X96992Y437396D01*
X93464Y433868D01*
X88855Y431959D01*
X83865Y431959D01*
G37*
%LPD*%
%LPC*%
G36*
X242385Y76159D02*
X242385Y76159D01*
X237850Y78038D01*
X234378Y81510D01*
X232499Y86045D01*
X232499Y90955D01*
X234378Y95490D01*
X237850Y98962D01*
X242385Y100841D01*
X247295Y100841D01*
X251830Y98962D01*
X255302Y95490D01*
X257181Y90955D01*
X257181Y86045D01*
X255302Y81510D01*
X251830Y78038D01*
X247295Y76159D01*
X242385Y76159D01*
G37*
%LPD*%
%LPC*%
G36*
X82365Y76159D02*
X82365Y76159D01*
X77830Y78038D01*
X74358Y81510D01*
X72479Y86045D01*
X72479Y90955D01*
X74358Y95490D01*
X77830Y98962D01*
X82365Y100841D01*
X87275Y100841D01*
X91810Y98962D01*
X95282Y95490D01*
X97161Y90955D01*
X97161Y86045D01*
X95282Y81510D01*
X91810Y78038D01*
X87275Y76159D01*
X82365Y76159D01*
G37*
%LPD*%
%LPC*%
G36*
X207365Y76159D02*
X207365Y76159D01*
X202830Y78038D01*
X199358Y81510D01*
X197479Y86045D01*
X197479Y90955D01*
X199358Y95490D01*
X202830Y98962D01*
X207365Y100841D01*
X212275Y100841D01*
X216810Y98962D01*
X220282Y95490D01*
X222161Y90955D01*
X222161Y86045D01*
X220282Y81510D01*
X216810Y78038D01*
X212275Y76159D01*
X207365Y76159D01*
G37*
%LPD*%
%LPC*%
G36*
X725525Y393659D02*
X725525Y393659D01*
X720990Y395538D01*
X717518Y399010D01*
X715639Y403545D01*
X715639Y408455D01*
X717518Y412990D01*
X720990Y416462D01*
X725525Y418341D01*
X730435Y418341D01*
X734970Y416462D01*
X738442Y412990D01*
X740321Y408455D01*
X740321Y403545D01*
X738442Y399010D01*
X734970Y395538D01*
X730435Y393659D01*
X725525Y393659D01*
G37*
%LPD*%
%LPC*%
G36*
X367385Y76159D02*
X367385Y76159D01*
X362850Y78038D01*
X359378Y81510D01*
X357499Y86045D01*
X357499Y90955D01*
X359378Y95490D01*
X362850Y98962D01*
X367385Y100841D01*
X372295Y100841D01*
X376830Y98962D01*
X380302Y95490D01*
X382181Y90955D01*
X382181Y86045D01*
X380302Y81510D01*
X376830Y78038D01*
X372295Y76159D01*
X367385Y76159D01*
G37*
%LPD*%
%LPC*%
G36*
X404945Y78699D02*
X404945Y78699D01*
X400410Y80578D01*
X396938Y84050D01*
X395059Y88585D01*
X395059Y93495D01*
X396938Y98030D01*
X400410Y101502D01*
X404945Y103381D01*
X409855Y103381D01*
X414390Y101502D01*
X417862Y98030D01*
X419741Y93495D01*
X419741Y88585D01*
X417862Y84050D01*
X414390Y80578D01*
X409855Y78699D01*
X404945Y78699D01*
G37*
%LPD*%
%LPC*%
G36*
X529945Y78699D02*
X529945Y78699D01*
X525410Y80578D01*
X521938Y84050D01*
X520059Y88585D01*
X520059Y93495D01*
X521938Y98030D01*
X525410Y101502D01*
X529945Y103381D01*
X534855Y103381D01*
X539390Y101502D01*
X542862Y98030D01*
X544741Y93495D01*
X544741Y88585D01*
X542862Y84050D01*
X539390Y80578D01*
X534855Y78699D01*
X529945Y78699D01*
G37*
%LPD*%
%LPC*%
G36*
X558615Y88859D02*
X558615Y88859D01*
X554080Y90738D01*
X550608Y94210D01*
X548729Y98745D01*
X548729Y103655D01*
X550608Y108190D01*
X554080Y111662D01*
X558615Y113541D01*
X563525Y113541D01*
X568060Y111662D01*
X571532Y108190D01*
X573411Y103655D01*
X573411Y98745D01*
X571532Y94210D01*
X568060Y90738D01*
X563525Y88859D01*
X558615Y88859D01*
G37*
%LPD*%
%LPC*%
G36*
X683615Y88859D02*
X683615Y88859D01*
X679080Y90738D01*
X675608Y94210D01*
X673729Y98745D01*
X673729Y103655D01*
X675608Y108190D01*
X679080Y111662D01*
X683615Y113541D01*
X688525Y113541D01*
X693060Y111662D01*
X696532Y108190D01*
X698411Y103655D01*
X698411Y98745D01*
X696532Y94210D01*
X693060Y90738D01*
X688525Y88859D01*
X683615Y88859D01*
G37*
%LPD*%
%LPC*%
G36*
X600525Y393659D02*
X600525Y393659D01*
X595990Y395538D01*
X592518Y399010D01*
X590639Y403545D01*
X590639Y408455D01*
X592518Y412990D01*
X595990Y416462D01*
X600525Y418341D01*
X605435Y418341D01*
X609970Y416462D01*
X613442Y412990D01*
X615321Y408455D01*
X615321Y403545D01*
X613442Y399010D01*
X609970Y395538D01*
X605435Y393659D01*
X600525Y393659D01*
G37*
%LPD*%
%LPC*%
G36*
X725525Y243799D02*
X725525Y243799D01*
X720990Y245678D01*
X717518Y249150D01*
X715639Y253685D01*
X715639Y258595D01*
X717518Y263130D01*
X720990Y266602D01*
X725525Y268481D01*
X730435Y268481D01*
X734970Y266602D01*
X738442Y263130D01*
X740321Y258595D01*
X740321Y253685D01*
X738442Y249150D01*
X734970Y245678D01*
X730435Y243799D01*
X725525Y243799D01*
G37*
%LPD*%
%LPC*%
G36*
X600525Y243799D02*
X600525Y243799D01*
X595990Y245678D01*
X592518Y249150D01*
X590639Y253685D01*
X590639Y258595D01*
X592518Y263130D01*
X595990Y266602D01*
X600525Y268481D01*
X605435Y268481D01*
X609970Y266602D01*
X613442Y263130D01*
X615321Y258595D01*
X615321Y253685D01*
X613442Y249150D01*
X609970Y245678D01*
X605435Y243799D01*
X600525Y243799D01*
G37*
%LPD*%
%LPC*%
G36*
X343520Y434847D02*
X343520Y434847D01*
X339972Y436317D01*
X337257Y439032D01*
X335787Y442580D01*
X335787Y446420D01*
X337257Y449968D01*
X339972Y452683D01*
X343520Y454153D01*
X347360Y454153D01*
X350908Y452683D01*
X353623Y449968D01*
X355093Y446420D01*
X355093Y442580D01*
X353623Y439032D01*
X350908Y436317D01*
X347360Y434847D01*
X343520Y434847D01*
G37*
%LPD*%
%LPC*%
G36*
X318120Y434847D02*
X318120Y434847D01*
X314572Y436317D01*
X311857Y439032D01*
X310387Y442580D01*
X310387Y446420D01*
X311857Y449968D01*
X314572Y452683D01*
X318120Y454153D01*
X321960Y454153D01*
X325508Y452683D01*
X328223Y449968D01*
X329693Y446420D01*
X329693Y442580D01*
X328223Y439032D01*
X325508Y436317D01*
X321960Y434847D01*
X318120Y434847D01*
G37*
%LPD*%
%LPC*%
G36*
X267320Y434847D02*
X267320Y434847D01*
X263772Y436317D01*
X261057Y439032D01*
X259587Y442580D01*
X259587Y446420D01*
X261057Y449968D01*
X263772Y452683D01*
X267320Y454153D01*
X271160Y454153D01*
X274708Y452683D01*
X277423Y449968D01*
X278893Y446420D01*
X278893Y442580D01*
X277423Y439032D01*
X274708Y436317D01*
X271160Y434847D01*
X267320Y434847D01*
G37*
%LPD*%
%LPC*%
G36*
X210937Y410076D02*
X210937Y410076D01*
X207716Y411410D01*
X205250Y413876D01*
X203916Y417097D01*
X203916Y420583D01*
X205250Y423804D01*
X207716Y426270D01*
X210937Y427604D01*
X214423Y427604D01*
X217644Y426270D01*
X220110Y423804D01*
X221444Y420583D01*
X221444Y417097D01*
X220110Y413876D01*
X217644Y411410D01*
X214423Y410076D01*
X210937Y410076D01*
G37*
%LPD*%
%LPC*%
G36*
X185537Y410076D02*
X185537Y410076D01*
X182316Y411410D01*
X179850Y413876D01*
X178516Y417097D01*
X178516Y420583D01*
X179850Y423804D01*
X182316Y426270D01*
X185537Y427604D01*
X189023Y427604D01*
X192244Y426270D01*
X194710Y423804D01*
X196044Y420583D01*
X196044Y417097D01*
X194710Y413876D01*
X192244Y411410D01*
X189023Y410076D01*
X185537Y410076D01*
G37*
%LPD*%
%LPC*%
G36*
X160137Y410076D02*
X160137Y410076D01*
X156916Y411410D01*
X154450Y413876D01*
X153116Y417097D01*
X153116Y420583D01*
X154450Y423804D01*
X156916Y426270D01*
X160137Y427604D01*
X163623Y427604D01*
X166844Y426270D01*
X169310Y423804D01*
X170644Y420583D01*
X170644Y417097D01*
X169310Y413876D01*
X166844Y411410D01*
X163623Y410076D01*
X160137Y410076D01*
G37*
%LPD*%
%LPC*%
G36*
X134737Y410076D02*
X134737Y410076D01*
X131516Y411410D01*
X129050Y413876D01*
X127716Y417097D01*
X127716Y420583D01*
X129050Y423804D01*
X131516Y426270D01*
X134737Y427604D01*
X138223Y427604D01*
X141444Y426270D01*
X143910Y423804D01*
X145244Y420583D01*
X145244Y417097D01*
X143910Y413876D01*
X141444Y411410D01*
X138223Y410076D01*
X134737Y410076D01*
G37*
%LPD*%
%LPC*%
G36*
X109337Y410076D02*
X109337Y410076D01*
X106116Y411410D01*
X103650Y413876D01*
X102316Y417097D01*
X102316Y420583D01*
X103650Y423804D01*
X106116Y426270D01*
X109337Y427604D01*
X112823Y427604D01*
X116044Y426270D01*
X118510Y423804D01*
X119844Y420583D01*
X119844Y417097D01*
X118510Y413876D01*
X116044Y411410D01*
X112823Y410076D01*
X109337Y410076D01*
G37*
%LPD*%
%LPC*%
G36*
X83937Y410076D02*
X83937Y410076D01*
X80716Y411410D01*
X78250Y413876D01*
X76916Y417097D01*
X76916Y420583D01*
X78250Y423804D01*
X80716Y426270D01*
X83937Y427604D01*
X87423Y427604D01*
X90644Y426270D01*
X93110Y423804D01*
X94444Y420583D01*
X94444Y417097D01*
X93110Y413876D01*
X90644Y411410D01*
X87423Y410076D01*
X83937Y410076D01*
G37*
%LPD*%
%LPC*%
G36*
X58537Y410076D02*
X58537Y410076D01*
X55316Y411410D01*
X52850Y413876D01*
X51516Y417097D01*
X51516Y420583D01*
X52850Y423804D01*
X55316Y426270D01*
X58537Y427604D01*
X62023Y427604D01*
X65244Y426270D01*
X67710Y423804D01*
X69044Y420583D01*
X69044Y417097D01*
X67710Y413876D01*
X65244Y411410D01*
X62023Y410076D01*
X58537Y410076D01*
G37*
%LPD*%
%LPC*%
G36*
X236337Y410076D02*
X236337Y410076D01*
X233116Y411410D01*
X230650Y413876D01*
X229316Y417097D01*
X229316Y420583D01*
X230650Y423804D01*
X233116Y426270D01*
X236337Y427604D01*
X239823Y427604D01*
X243044Y426270D01*
X245510Y423804D01*
X246844Y420583D01*
X246844Y417097D01*
X245510Y413876D01*
X243044Y411410D01*
X239823Y410076D01*
X236337Y410076D01*
G37*
%LPD*%
%LPC*%
G36*
X261737Y410076D02*
X261737Y410076D01*
X258516Y411410D01*
X256050Y413876D01*
X254716Y417097D01*
X254716Y420583D01*
X256050Y423804D01*
X258516Y426270D01*
X261737Y427604D01*
X265223Y427604D01*
X268444Y426270D01*
X270910Y423804D01*
X272244Y420583D01*
X272244Y417097D01*
X270910Y413876D01*
X268444Y411410D01*
X265223Y410076D01*
X261737Y410076D01*
G37*
%LPD*%
%LPC*%
G36*
X287137Y384676D02*
X287137Y384676D01*
X283916Y386010D01*
X281450Y388476D01*
X280116Y391697D01*
X280116Y395183D01*
X281450Y398404D01*
X283916Y400870D01*
X287137Y402204D01*
X290623Y402204D01*
X293844Y400870D01*
X296310Y398404D01*
X297644Y395183D01*
X297644Y391697D01*
X296310Y388476D01*
X293844Y386010D01*
X290623Y384676D01*
X287137Y384676D01*
G37*
%LPD*%
%LPC*%
G36*
X261737Y384676D02*
X261737Y384676D01*
X258516Y386010D01*
X256050Y388476D01*
X254716Y391697D01*
X254716Y395183D01*
X256050Y398404D01*
X258516Y400870D01*
X261737Y402204D01*
X265223Y402204D01*
X268444Y400870D01*
X270910Y398404D01*
X272244Y395183D01*
X272244Y391697D01*
X270910Y388476D01*
X268444Y386010D01*
X265223Y384676D01*
X261737Y384676D01*
G37*
%LPD*%
%LPC*%
G36*
X490337Y384676D02*
X490337Y384676D01*
X487116Y386010D01*
X484650Y388476D01*
X483316Y391697D01*
X483316Y395183D01*
X484650Y398404D01*
X487116Y400870D01*
X490337Y402204D01*
X493823Y402204D01*
X497044Y400870D01*
X499510Y398404D01*
X500844Y395183D01*
X500844Y391697D01*
X499510Y388476D01*
X497044Y386010D01*
X493823Y384676D01*
X490337Y384676D01*
G37*
%LPD*%
%LPC*%
G36*
X464937Y384676D02*
X464937Y384676D01*
X461716Y386010D01*
X459250Y388476D01*
X457916Y391697D01*
X457916Y395183D01*
X459250Y398404D01*
X461716Y400870D01*
X464937Y402204D01*
X468423Y402204D01*
X471644Y400870D01*
X474110Y398404D01*
X475444Y395183D01*
X475444Y391697D01*
X474110Y388476D01*
X471644Y386010D01*
X468423Y384676D01*
X464937Y384676D01*
G37*
%LPD*%
%LPC*%
G36*
X439537Y384676D02*
X439537Y384676D01*
X436316Y386010D01*
X433850Y388476D01*
X432516Y391697D01*
X432516Y395183D01*
X433850Y398404D01*
X436316Y400870D01*
X439537Y402204D01*
X443023Y402204D01*
X446244Y400870D01*
X448710Y398404D01*
X450044Y395183D01*
X450044Y391697D01*
X448710Y388476D01*
X446244Y386010D01*
X443023Y384676D01*
X439537Y384676D01*
G37*
%LPD*%
%LPC*%
G36*
X414137Y384676D02*
X414137Y384676D01*
X410916Y386010D01*
X408450Y388476D01*
X407116Y391697D01*
X407116Y395183D01*
X408450Y398404D01*
X410916Y400870D01*
X414137Y402204D01*
X417623Y402204D01*
X420844Y400870D01*
X423310Y398404D01*
X424644Y395183D01*
X424644Y391697D01*
X423310Y388476D01*
X420844Y386010D01*
X417623Y384676D01*
X414137Y384676D01*
G37*
%LPD*%
%LPC*%
G36*
X388737Y384676D02*
X388737Y384676D01*
X385516Y386010D01*
X383050Y388476D01*
X381716Y391697D01*
X381716Y395183D01*
X383050Y398404D01*
X385516Y400870D01*
X388737Y402204D01*
X392223Y402204D01*
X395444Y400870D01*
X397910Y398404D01*
X399244Y395183D01*
X399244Y391697D01*
X397910Y388476D01*
X395444Y386010D01*
X392223Y384676D01*
X388737Y384676D01*
G37*
%LPD*%
%LPC*%
G36*
X363337Y384676D02*
X363337Y384676D01*
X360116Y386010D01*
X357650Y388476D01*
X356316Y391697D01*
X356316Y395183D01*
X357650Y398404D01*
X360116Y400870D01*
X363337Y402204D01*
X366823Y402204D01*
X370044Y400870D01*
X372510Y398404D01*
X373844Y395183D01*
X373844Y391697D01*
X372510Y388476D01*
X370044Y386010D01*
X366823Y384676D01*
X363337Y384676D01*
G37*
%LPD*%
%LPC*%
G36*
X337937Y384676D02*
X337937Y384676D01*
X334716Y386010D01*
X332250Y388476D01*
X330916Y391697D01*
X330916Y395183D01*
X332250Y398404D01*
X334716Y400870D01*
X337937Y402204D01*
X341423Y402204D01*
X344644Y400870D01*
X347110Y398404D01*
X348444Y395183D01*
X348444Y391697D01*
X347110Y388476D01*
X344644Y386010D01*
X341423Y384676D01*
X337937Y384676D01*
G37*
%LPD*%
%LPC*%
G36*
X210937Y384676D02*
X210937Y384676D01*
X207716Y386010D01*
X205250Y388476D01*
X203916Y391697D01*
X203916Y395183D01*
X205250Y398404D01*
X207716Y400870D01*
X210937Y402204D01*
X214423Y402204D01*
X217644Y400870D01*
X220110Y398404D01*
X221444Y395183D01*
X221444Y391697D01*
X220110Y388476D01*
X217644Y386010D01*
X214423Y384676D01*
X210937Y384676D01*
G37*
%LPD*%
%LPC*%
G36*
X185537Y384676D02*
X185537Y384676D01*
X182316Y386010D01*
X179850Y388476D01*
X178516Y391697D01*
X178516Y395183D01*
X179850Y398404D01*
X182316Y400870D01*
X185537Y402204D01*
X189023Y402204D01*
X192244Y400870D01*
X194710Y398404D01*
X196044Y395183D01*
X196044Y391697D01*
X194710Y388476D01*
X192244Y386010D01*
X189023Y384676D01*
X185537Y384676D01*
G37*
%LPD*%
%LPC*%
G36*
X160137Y384676D02*
X160137Y384676D01*
X156916Y386010D01*
X154450Y388476D01*
X153116Y391697D01*
X153116Y395183D01*
X154450Y398404D01*
X156916Y400870D01*
X160137Y402204D01*
X163623Y402204D01*
X166844Y400870D01*
X169310Y398404D01*
X170644Y395183D01*
X170644Y391697D01*
X169310Y388476D01*
X166844Y386010D01*
X163623Y384676D01*
X160137Y384676D01*
G37*
%LPD*%
%LPC*%
G36*
X134737Y384676D02*
X134737Y384676D01*
X131516Y386010D01*
X129050Y388476D01*
X127716Y391697D01*
X127716Y395183D01*
X129050Y398404D01*
X131516Y400870D01*
X134737Y402204D01*
X138223Y402204D01*
X141444Y400870D01*
X143910Y398404D01*
X145244Y395183D01*
X145244Y391697D01*
X143910Y388476D01*
X141444Y386010D01*
X138223Y384676D01*
X134737Y384676D01*
G37*
%LPD*%
%LPC*%
G36*
X109337Y384676D02*
X109337Y384676D01*
X106116Y386010D01*
X103650Y388476D01*
X102316Y391697D01*
X102316Y395183D01*
X103650Y398404D01*
X106116Y400870D01*
X109337Y402204D01*
X112823Y402204D01*
X116044Y400870D01*
X118510Y398404D01*
X119844Y395183D01*
X119844Y391697D01*
X118510Y388476D01*
X116044Y386010D01*
X112823Y384676D01*
X109337Y384676D01*
G37*
%LPD*%
%LPC*%
G36*
X83937Y384676D02*
X83937Y384676D01*
X80716Y386010D01*
X78250Y388476D01*
X76916Y391697D01*
X76916Y395183D01*
X78250Y398404D01*
X80716Y400870D01*
X83937Y402204D01*
X87423Y402204D01*
X90644Y400870D01*
X93110Y398404D01*
X94444Y395183D01*
X94444Y391697D01*
X93110Y388476D01*
X90644Y386010D01*
X87423Y384676D01*
X83937Y384676D01*
G37*
%LPD*%
%LPC*%
G36*
X58537Y384676D02*
X58537Y384676D01*
X55316Y386010D01*
X52850Y388476D01*
X51516Y391697D01*
X51516Y395183D01*
X52850Y398404D01*
X55316Y400870D01*
X58537Y402204D01*
X62023Y402204D01*
X65244Y400870D01*
X67710Y398404D01*
X69044Y395183D01*
X69044Y391697D01*
X67710Y388476D01*
X65244Y386010D01*
X62023Y384676D01*
X58537Y384676D01*
G37*
%LPD*%
%LPC*%
G36*
X414137Y410076D02*
X414137Y410076D01*
X410916Y411410D01*
X408450Y413876D01*
X407116Y417097D01*
X407116Y420583D01*
X408450Y423804D01*
X410916Y426270D01*
X414137Y427604D01*
X417623Y427604D01*
X420844Y426270D01*
X423310Y423804D01*
X424644Y420583D01*
X424644Y417097D01*
X423310Y413876D01*
X420844Y411410D01*
X417623Y410076D01*
X414137Y410076D01*
G37*
%LPD*%
%LPC*%
G36*
X388737Y410076D02*
X388737Y410076D01*
X385516Y411410D01*
X383050Y413876D01*
X381716Y417097D01*
X381716Y420583D01*
X383050Y423804D01*
X385516Y426270D01*
X388737Y427604D01*
X392223Y427604D01*
X395444Y426270D01*
X397910Y423804D01*
X399244Y420583D01*
X399244Y417097D01*
X397910Y413876D01*
X395444Y411410D01*
X392223Y410076D01*
X388737Y410076D01*
G37*
%LPD*%
%LPC*%
G36*
X490337Y410076D02*
X490337Y410076D01*
X487116Y411410D01*
X484650Y413876D01*
X483316Y417097D01*
X483316Y420583D01*
X484650Y423804D01*
X487116Y426270D01*
X490337Y427604D01*
X493823Y427604D01*
X497044Y426270D01*
X499510Y423804D01*
X500844Y420583D01*
X500844Y417097D01*
X499510Y413876D01*
X497044Y411410D01*
X493823Y410076D01*
X490337Y410076D01*
G37*
%LPD*%
%LPC*%
G36*
X439537Y410076D02*
X439537Y410076D01*
X436316Y411410D01*
X433850Y413876D01*
X432516Y417097D01*
X432516Y420583D01*
X433850Y423804D01*
X436316Y426270D01*
X439537Y427604D01*
X443023Y427604D01*
X446244Y426270D01*
X448710Y423804D01*
X450044Y420583D01*
X450044Y417097D01*
X448710Y413876D01*
X446244Y411410D01*
X443023Y410076D01*
X439537Y410076D01*
G37*
%LPD*%
%LPC*%
G36*
X464937Y410076D02*
X464937Y410076D01*
X461716Y411410D01*
X459250Y413876D01*
X457916Y417097D01*
X457916Y420583D01*
X459250Y423804D01*
X461716Y426270D01*
X464937Y427604D01*
X468423Y427604D01*
X471644Y426270D01*
X474110Y423804D01*
X475444Y420583D01*
X475444Y417097D01*
X474110Y413876D01*
X471644Y411410D01*
X468423Y410076D01*
X464937Y410076D01*
G37*
%LPD*%
%LPC*%
G36*
X58537Y130676D02*
X58537Y130676D01*
X55316Y132010D01*
X52850Y134476D01*
X51516Y137697D01*
X51516Y141183D01*
X52850Y144404D01*
X55316Y146870D01*
X58537Y148204D01*
X62023Y148204D01*
X65244Y146870D01*
X67710Y144404D01*
X69044Y141183D01*
X69044Y137697D01*
X67710Y134476D01*
X65244Y132010D01*
X62023Y130676D01*
X58537Y130676D01*
G37*
%LPD*%
%LPC*%
G36*
X83937Y130676D02*
X83937Y130676D01*
X80716Y132010D01*
X78250Y134476D01*
X76916Y137697D01*
X76916Y141183D01*
X78250Y144404D01*
X80716Y146870D01*
X83937Y148204D01*
X87423Y148204D01*
X90644Y146870D01*
X93110Y144404D01*
X94444Y141183D01*
X94444Y137697D01*
X93110Y134476D01*
X90644Y132010D01*
X87423Y130676D01*
X83937Y130676D01*
G37*
%LPD*%
%LPC*%
G36*
X109337Y130676D02*
X109337Y130676D01*
X106116Y132010D01*
X103650Y134476D01*
X102316Y137697D01*
X102316Y141183D01*
X103650Y144404D01*
X106116Y146870D01*
X109337Y148204D01*
X112823Y148204D01*
X116044Y146870D01*
X118510Y144404D01*
X119844Y141183D01*
X119844Y137697D01*
X118510Y134476D01*
X116044Y132010D01*
X112823Y130676D01*
X109337Y130676D01*
G37*
%LPD*%
%LPC*%
G36*
X134737Y130676D02*
X134737Y130676D01*
X131516Y132010D01*
X129050Y134476D01*
X127716Y137697D01*
X127716Y141183D01*
X129050Y144404D01*
X131516Y146870D01*
X134737Y148204D01*
X138223Y148204D01*
X141444Y146870D01*
X143910Y144404D01*
X145244Y141183D01*
X145244Y137697D01*
X143910Y134476D01*
X141444Y132010D01*
X138223Y130676D01*
X134737Y130676D01*
G37*
%LPD*%
%LPC*%
G36*
X160137Y130676D02*
X160137Y130676D01*
X156916Y132010D01*
X154450Y134476D01*
X153116Y137697D01*
X153116Y141183D01*
X154450Y144404D01*
X156916Y146870D01*
X160137Y148204D01*
X163623Y148204D01*
X166844Y146870D01*
X169310Y144404D01*
X170644Y141183D01*
X170644Y137697D01*
X169310Y134476D01*
X166844Y132010D01*
X163623Y130676D01*
X160137Y130676D01*
G37*
%LPD*%
%LPC*%
G36*
X185537Y130676D02*
X185537Y130676D01*
X182316Y132010D01*
X179850Y134476D01*
X178516Y137697D01*
X178516Y141183D01*
X179850Y144404D01*
X182316Y146870D01*
X185537Y148204D01*
X189023Y148204D01*
X192244Y146870D01*
X194710Y144404D01*
X196044Y141183D01*
X196044Y137697D01*
X194710Y134476D01*
X192244Y132010D01*
X189023Y130676D01*
X185537Y130676D01*
G37*
%LPD*%
%LPC*%
G36*
X210937Y130676D02*
X210937Y130676D01*
X207716Y132010D01*
X205250Y134476D01*
X203916Y137697D01*
X203916Y141183D01*
X205250Y144404D01*
X207716Y146870D01*
X210937Y148204D01*
X214423Y148204D01*
X217644Y146870D01*
X220110Y144404D01*
X221444Y141183D01*
X221444Y137697D01*
X220110Y134476D01*
X217644Y132010D01*
X214423Y130676D01*
X210937Y130676D01*
G37*
%LPD*%
%LPC*%
G36*
X236337Y130676D02*
X236337Y130676D01*
X233116Y132010D01*
X230650Y134476D01*
X229316Y137697D01*
X229316Y141183D01*
X230650Y144404D01*
X233116Y146870D01*
X236337Y148204D01*
X239823Y148204D01*
X243044Y146870D01*
X245510Y144404D01*
X246844Y141183D01*
X246844Y137697D01*
X245510Y134476D01*
X243044Y132010D01*
X239823Y130676D01*
X236337Y130676D01*
G37*
%LPD*%
%LPC*%
G36*
X261737Y130676D02*
X261737Y130676D01*
X258516Y132010D01*
X256050Y134476D01*
X254716Y137697D01*
X254716Y141183D01*
X256050Y144404D01*
X258516Y146870D01*
X261737Y148204D01*
X265223Y148204D01*
X268444Y146870D01*
X270910Y144404D01*
X272244Y141183D01*
X272244Y137697D01*
X270910Y134476D01*
X268444Y132010D01*
X265223Y130676D01*
X261737Y130676D01*
G37*
%LPD*%
%LPC*%
G36*
X287137Y130676D02*
X287137Y130676D01*
X283916Y132010D01*
X281450Y134476D01*
X280116Y137697D01*
X280116Y141183D01*
X281450Y144404D01*
X283916Y146870D01*
X287137Y148204D01*
X290623Y148204D01*
X293844Y146870D01*
X296310Y144404D01*
X297644Y141183D01*
X297644Y137697D01*
X296310Y134476D01*
X293844Y132010D01*
X290623Y130676D01*
X287137Y130676D01*
G37*
%LPD*%
%LPC*%
G36*
X337937Y130676D02*
X337937Y130676D01*
X334716Y132010D01*
X332250Y134476D01*
X330916Y137697D01*
X330916Y141183D01*
X332250Y144404D01*
X334716Y146870D01*
X337937Y148204D01*
X341423Y148204D01*
X344644Y146870D01*
X347110Y144404D01*
X348444Y141183D01*
X348444Y137697D01*
X347110Y134476D01*
X344644Y132010D01*
X341423Y130676D01*
X337937Y130676D01*
G37*
%LPD*%
%LPC*%
G36*
X363337Y130676D02*
X363337Y130676D01*
X360116Y132010D01*
X357650Y134476D01*
X356316Y137697D01*
X356316Y141183D01*
X357650Y144404D01*
X360116Y146870D01*
X363337Y148204D01*
X366823Y148204D01*
X370044Y146870D01*
X372510Y144404D01*
X373844Y141183D01*
X373844Y137697D01*
X372510Y134476D01*
X370044Y132010D01*
X366823Y130676D01*
X363337Y130676D01*
G37*
%LPD*%
%LPC*%
G36*
X388737Y130676D02*
X388737Y130676D01*
X385516Y132010D01*
X383050Y134476D01*
X381716Y137697D01*
X381716Y141183D01*
X383050Y144404D01*
X385516Y146870D01*
X388737Y148204D01*
X392223Y148204D01*
X395444Y146870D01*
X397910Y144404D01*
X399244Y141183D01*
X399244Y137697D01*
X397910Y134476D01*
X395444Y132010D01*
X392223Y130676D01*
X388737Y130676D01*
G37*
%LPD*%
%LPC*%
G36*
X414137Y130676D02*
X414137Y130676D01*
X410916Y132010D01*
X408450Y134476D01*
X407116Y137697D01*
X407116Y141183D01*
X408450Y144404D01*
X410916Y146870D01*
X414137Y148204D01*
X417623Y148204D01*
X420844Y146870D01*
X423310Y144404D01*
X424644Y141183D01*
X424644Y137697D01*
X423310Y134476D01*
X420844Y132010D01*
X417623Y130676D01*
X414137Y130676D01*
G37*
%LPD*%
%LPC*%
G36*
X439537Y130676D02*
X439537Y130676D01*
X436316Y132010D01*
X433850Y134476D01*
X432516Y137697D01*
X432516Y141183D01*
X433850Y144404D01*
X436316Y146870D01*
X439537Y148204D01*
X443023Y148204D01*
X446244Y146870D01*
X448710Y144404D01*
X450044Y141183D01*
X450044Y137697D01*
X448710Y134476D01*
X446244Y132010D01*
X443023Y130676D01*
X439537Y130676D01*
G37*
%LPD*%
%LPC*%
G36*
X464937Y130676D02*
X464937Y130676D01*
X461716Y132010D01*
X459250Y134476D01*
X457916Y137697D01*
X457916Y141183D01*
X459250Y144404D01*
X461716Y146870D01*
X464937Y148204D01*
X468423Y148204D01*
X471644Y146870D01*
X474110Y144404D01*
X475444Y141183D01*
X475444Y137697D01*
X474110Y134476D01*
X471644Y132010D01*
X468423Y130676D01*
X464937Y130676D01*
G37*
%LPD*%
%LPC*%
G36*
X287137Y410076D02*
X287137Y410076D01*
X283916Y411410D01*
X281450Y413876D01*
X280116Y417097D01*
X280116Y420583D01*
X281450Y423804D01*
X283916Y426270D01*
X287137Y427604D01*
X290623Y427604D01*
X293844Y426270D01*
X296310Y423804D01*
X297644Y420583D01*
X297644Y417097D01*
X296310Y413876D01*
X293844Y411410D01*
X290623Y410076D01*
X287137Y410076D01*
G37*
%LPD*%
%LPC*%
G36*
X312537Y410076D02*
X312537Y410076D01*
X309316Y411410D01*
X306850Y413876D01*
X305516Y417097D01*
X305516Y420583D01*
X306850Y423804D01*
X309316Y426270D01*
X312537Y427604D01*
X316023Y427604D01*
X319244Y426270D01*
X321710Y423804D01*
X323044Y420583D01*
X323044Y417097D01*
X321710Y413876D01*
X319244Y411410D01*
X316023Y410076D01*
X312537Y410076D01*
G37*
%LPD*%
%LPC*%
G36*
X490337Y130676D02*
X490337Y130676D01*
X487116Y132010D01*
X484650Y134476D01*
X483316Y137697D01*
X483316Y141183D01*
X484650Y144404D01*
X487116Y146870D01*
X490337Y148204D01*
X493823Y148204D01*
X497044Y146870D01*
X499510Y144404D01*
X500844Y141183D01*
X500844Y137697D01*
X499510Y134476D01*
X497044Y132010D01*
X493823Y130676D01*
X490337Y130676D01*
G37*
%LPD*%
%LPC*%
G36*
X337937Y410076D02*
X337937Y410076D01*
X334716Y411410D01*
X332250Y413876D01*
X330916Y417097D01*
X330916Y420583D01*
X332250Y423804D01*
X334716Y426270D01*
X337937Y427604D01*
X341423Y427604D01*
X344644Y426270D01*
X347110Y423804D01*
X348444Y420583D01*
X348444Y417097D01*
X347110Y413876D01*
X344644Y411410D01*
X341423Y410076D01*
X337937Y410076D01*
G37*
%LPD*%
%LPC*%
G36*
X363337Y410076D02*
X363337Y410076D01*
X360116Y411410D01*
X357650Y413876D01*
X356316Y417097D01*
X356316Y420583D01*
X357650Y423804D01*
X360116Y426270D01*
X363337Y427604D01*
X366823Y427604D01*
X370044Y426270D01*
X372510Y423804D01*
X373844Y420583D01*
X373844Y417097D01*
X372510Y413876D01*
X370044Y411410D01*
X366823Y410076D01*
X363337Y410076D01*
G37*
%LPD*%
%LPC*%
G36*
X58537Y156076D02*
X58537Y156076D01*
X55316Y157410D01*
X52850Y159876D01*
X51516Y163097D01*
X51516Y166583D01*
X52850Y169804D01*
X55316Y172270D01*
X58537Y173604D01*
X62023Y173604D01*
X65244Y172270D01*
X67710Y169804D01*
X69044Y166583D01*
X69044Y163097D01*
X67710Y159876D01*
X65244Y157410D01*
X62023Y156076D01*
X58537Y156076D01*
G37*
%LPD*%
%LPC*%
G36*
X83937Y156076D02*
X83937Y156076D01*
X80716Y157410D01*
X78250Y159876D01*
X76916Y163097D01*
X76916Y166583D01*
X78250Y169804D01*
X80716Y172270D01*
X83937Y173604D01*
X87423Y173604D01*
X90644Y172270D01*
X93110Y169804D01*
X94444Y166583D01*
X94444Y163097D01*
X93110Y159876D01*
X90644Y157410D01*
X87423Y156076D01*
X83937Y156076D01*
G37*
%LPD*%
%LPC*%
G36*
X109337Y156076D02*
X109337Y156076D01*
X106116Y157410D01*
X103650Y159876D01*
X102316Y163097D01*
X102316Y166583D01*
X103650Y169804D01*
X106116Y172270D01*
X109337Y173604D01*
X112823Y173604D01*
X116044Y172270D01*
X118510Y169804D01*
X119844Y166583D01*
X119844Y163097D01*
X118510Y159876D01*
X116044Y157410D01*
X112823Y156076D01*
X109337Y156076D01*
G37*
%LPD*%
%LPC*%
G36*
X134737Y156076D02*
X134737Y156076D01*
X131516Y157410D01*
X129050Y159876D01*
X127716Y163097D01*
X127716Y166583D01*
X129050Y169804D01*
X131516Y172270D01*
X134737Y173604D01*
X138223Y173604D01*
X141444Y172270D01*
X143910Y169804D01*
X145244Y166583D01*
X145244Y163097D01*
X143910Y159876D01*
X141444Y157410D01*
X138223Y156076D01*
X134737Y156076D01*
G37*
%LPD*%
%LPC*%
G36*
X160137Y156076D02*
X160137Y156076D01*
X156916Y157410D01*
X154450Y159876D01*
X153116Y163097D01*
X153116Y166583D01*
X154450Y169804D01*
X156916Y172270D01*
X160137Y173604D01*
X163623Y173604D01*
X166844Y172270D01*
X169310Y169804D01*
X170644Y166583D01*
X170644Y163097D01*
X169310Y159876D01*
X166844Y157410D01*
X163623Y156076D01*
X160137Y156076D01*
G37*
%LPD*%
%LPC*%
G36*
X185537Y156076D02*
X185537Y156076D01*
X182316Y157410D01*
X179850Y159876D01*
X178516Y163097D01*
X178516Y166583D01*
X179850Y169804D01*
X182316Y172270D01*
X185537Y173604D01*
X189023Y173604D01*
X192244Y172270D01*
X194710Y169804D01*
X196044Y166583D01*
X196044Y163097D01*
X194710Y159876D01*
X192244Y157410D01*
X189023Y156076D01*
X185537Y156076D01*
G37*
%LPD*%
%LPC*%
G36*
X210937Y156076D02*
X210937Y156076D01*
X207716Y157410D01*
X205250Y159876D01*
X203916Y163097D01*
X203916Y166583D01*
X205250Y169804D01*
X207716Y172270D01*
X210937Y173604D01*
X214423Y173604D01*
X217644Y172270D01*
X220110Y169804D01*
X221444Y166583D01*
X221444Y163097D01*
X220110Y159876D01*
X217644Y157410D01*
X214423Y156076D01*
X210937Y156076D01*
G37*
%LPD*%
%LPC*%
G36*
X261737Y156076D02*
X261737Y156076D01*
X258516Y157410D01*
X256050Y159876D01*
X254716Y163097D01*
X254716Y166583D01*
X256050Y169804D01*
X258516Y172270D01*
X261737Y173604D01*
X265223Y173604D01*
X268444Y172270D01*
X270910Y169804D01*
X272244Y166583D01*
X272244Y163097D01*
X270910Y159876D01*
X268444Y157410D01*
X265223Y156076D01*
X261737Y156076D01*
G37*
%LPD*%
%LPC*%
G36*
X287137Y156076D02*
X287137Y156076D01*
X283916Y157410D01*
X281450Y159876D01*
X280116Y163097D01*
X280116Y166583D01*
X281450Y169804D01*
X283916Y172270D01*
X287137Y173604D01*
X290623Y173604D01*
X293844Y172270D01*
X296310Y169804D01*
X297644Y166583D01*
X297644Y163097D01*
X296310Y159876D01*
X293844Y157410D01*
X290623Y156076D01*
X287137Y156076D01*
G37*
%LPD*%
%LPC*%
G36*
X337937Y156076D02*
X337937Y156076D01*
X334716Y157410D01*
X332250Y159876D01*
X330916Y163097D01*
X330916Y166583D01*
X332250Y169804D01*
X334716Y172270D01*
X337937Y173604D01*
X341423Y173604D01*
X344644Y172270D01*
X347110Y169804D01*
X348444Y166583D01*
X348444Y163097D01*
X347110Y159876D01*
X344644Y157410D01*
X341423Y156076D01*
X337937Y156076D01*
G37*
%LPD*%
%LPC*%
G36*
X414137Y156076D02*
X414137Y156076D01*
X410916Y157410D01*
X408450Y159876D01*
X407116Y163097D01*
X407116Y166583D01*
X408450Y169804D01*
X410916Y172270D01*
X414137Y173604D01*
X417623Y173604D01*
X420844Y172270D01*
X423310Y169804D01*
X424644Y166583D01*
X424644Y163097D01*
X423310Y159876D01*
X420844Y157410D01*
X417623Y156076D01*
X414137Y156076D01*
G37*
%LPD*%
%LPC*%
G36*
X388737Y156076D02*
X388737Y156076D01*
X385516Y157410D01*
X383050Y159876D01*
X381716Y163097D01*
X381716Y166583D01*
X383050Y169804D01*
X385516Y172270D01*
X388737Y173604D01*
X392223Y173604D01*
X395444Y172270D01*
X397910Y169804D01*
X399244Y166583D01*
X399244Y163097D01*
X397910Y159876D01*
X395444Y157410D01*
X392223Y156076D01*
X388737Y156076D01*
G37*
%LPD*%
%LPC*%
G36*
X363337Y156076D02*
X363337Y156076D01*
X360116Y157410D01*
X357650Y159876D01*
X356316Y163097D01*
X356316Y166583D01*
X357650Y169804D01*
X360116Y172270D01*
X363337Y173604D01*
X366823Y173604D01*
X370044Y172270D01*
X372510Y169804D01*
X373844Y166583D01*
X373844Y163097D01*
X372510Y159876D01*
X370044Y157410D01*
X366823Y156076D01*
X363337Y156076D01*
G37*
%LPD*%
%LPC*%
G36*
X490337Y156076D02*
X490337Y156076D01*
X487116Y157410D01*
X484650Y159876D01*
X483316Y163097D01*
X483316Y166583D01*
X484650Y169804D01*
X487116Y172270D01*
X490337Y173604D01*
X493823Y173604D01*
X497044Y172270D01*
X499510Y169804D01*
X500844Y166583D01*
X500844Y163097D01*
X499510Y159876D01*
X497044Y157410D01*
X493823Y156076D01*
X490337Y156076D01*
G37*
%LPD*%
%LPC*%
G36*
X464937Y156076D02*
X464937Y156076D01*
X461716Y157410D01*
X459250Y159876D01*
X457916Y163097D01*
X457916Y166583D01*
X459250Y169804D01*
X461716Y172270D01*
X464937Y173604D01*
X468423Y173604D01*
X471644Y172270D01*
X474110Y169804D01*
X475444Y166583D01*
X475444Y163097D01*
X474110Y159876D01*
X471644Y157410D01*
X468423Y156076D01*
X464937Y156076D01*
G37*
%LPD*%
%LPC*%
G36*
X439537Y156076D02*
X439537Y156076D01*
X436316Y157410D01*
X433850Y159876D01*
X432516Y163097D01*
X432516Y166583D01*
X433850Y169804D01*
X436316Y172270D01*
X439537Y173604D01*
X443023Y173604D01*
X446244Y172270D01*
X448710Y169804D01*
X450044Y166583D01*
X450044Y163097D01*
X448710Y159876D01*
X446244Y157410D01*
X443023Y156076D01*
X439537Y156076D01*
G37*
%LPD*%
%LPC*%
G36*
X550068Y174751D02*
X550068Y174751D01*
X548014Y175602D01*
X546442Y177174D01*
X545591Y179228D01*
X545591Y181452D01*
X546442Y183506D01*
X548014Y185078D01*
X550068Y185929D01*
X552292Y185929D01*
X554346Y185078D01*
X555918Y183506D01*
X556769Y181452D01*
X556769Y179228D01*
X555918Y177174D01*
X554346Y175602D01*
X552292Y174751D01*
X550068Y174751D01*
G37*
%LPD*%
%LPC*%
G36*
X59848Y108711D02*
X59848Y108711D01*
X57794Y109562D01*
X56222Y111134D01*
X55371Y113188D01*
X55371Y115412D01*
X56222Y117466D01*
X57794Y119038D01*
X59848Y119889D01*
X62072Y119889D01*
X64126Y119038D01*
X65698Y117466D01*
X66549Y115412D01*
X66549Y113188D01*
X65698Y111134D01*
X64126Y109562D01*
X62072Y108711D01*
X59848Y108711D01*
G37*
%LPD*%
%LPC*%
G36*
X386238Y99821D02*
X386238Y99821D01*
X384184Y100672D01*
X382612Y102244D01*
X381761Y104298D01*
X381761Y106522D01*
X382612Y108576D01*
X384184Y110148D01*
X386238Y110999D01*
X388462Y110999D01*
X390516Y110148D01*
X392088Y108576D01*
X392939Y106522D01*
X392939Y104298D01*
X392088Y102244D01*
X390516Y100672D01*
X388462Y99821D01*
X386238Y99821D01*
G37*
%LPD*%
%LPC*%
G36*
X575468Y372871D02*
X575468Y372871D01*
X573414Y373722D01*
X571842Y375294D01*
X570991Y377348D01*
X570991Y379572D01*
X571842Y381626D01*
X573414Y383198D01*
X575468Y384049D01*
X577692Y384049D01*
X579746Y383198D01*
X581318Y381626D01*
X582169Y379572D01*
X582169Y377348D01*
X581318Y375294D01*
X579746Y373722D01*
X577692Y372871D01*
X575468Y372871D01*
G37*
%LPD*%
%LPC*%
G36*
X392588Y332231D02*
X392588Y332231D01*
X390534Y333082D01*
X388962Y334654D01*
X388111Y336708D01*
X388111Y338932D01*
X388962Y340986D01*
X390534Y342558D01*
X392588Y343409D01*
X394812Y343409D01*
X396866Y342558D01*
X398438Y340986D01*
X399289Y338932D01*
X399289Y336708D01*
X398438Y334654D01*
X396866Y333082D01*
X394812Y332231D01*
X392588Y332231D01*
G37*
%LPD*%
%LPC*%
G36*
X226218Y102361D02*
X226218Y102361D01*
X224164Y103212D01*
X222592Y104784D01*
X221741Y106838D01*
X221741Y109062D01*
X222592Y111116D01*
X224164Y112688D01*
X226218Y113539D01*
X228442Y113539D01*
X230496Y112688D01*
X232068Y111116D01*
X232919Y109062D01*
X232919Y106838D01*
X232068Y104784D01*
X230496Y103212D01*
X228442Y102361D01*
X226218Y102361D01*
G37*
%LPD*%
%LPC*%
G36*
X354488Y332231D02*
X354488Y332231D01*
X352434Y333082D01*
X350862Y334654D01*
X350011Y336708D01*
X350011Y338932D01*
X350862Y340986D01*
X352434Y342558D01*
X354488Y343409D01*
X356712Y343409D01*
X358766Y342558D01*
X360338Y340986D01*
X361189Y338932D01*
X361189Y336708D01*
X360338Y334654D01*
X358766Y333082D01*
X356712Y332231D01*
X354488Y332231D01*
G37*
%LPD*%
%LPC*%
G36*
X575468Y228091D02*
X575468Y228091D01*
X573414Y228942D01*
X571842Y230514D01*
X570991Y232568D01*
X570991Y234792D01*
X571842Y236846D01*
X573414Y238418D01*
X575468Y239269D01*
X577692Y239269D01*
X579746Y238418D01*
X581318Y236846D01*
X582169Y234792D01*
X582169Y232568D01*
X581318Y230514D01*
X579746Y228942D01*
X577692Y228091D01*
X575468Y228091D01*
G37*
%LPD*%
%LPC*%
G36*
X212359Y41039D02*
X212359Y41039D01*
X212359Y50592D01*
X212710Y50537D01*
X214557Y49937D01*
X216288Y49055D01*
X217083Y48477D01*
X217859Y47913D01*
X219233Y46539D01*
X220375Y44968D01*
X221257Y43237D01*
X221857Y41390D01*
X221912Y41039D01*
X212359Y41039D01*
G37*
%LPD*%
%LPC*%
G36*
X87359Y41039D02*
X87359Y41039D01*
X87359Y50592D01*
X87710Y50537D01*
X89557Y49937D01*
X91288Y49055D01*
X92083Y48477D01*
X92859Y47913D01*
X94233Y46539D01*
X95375Y44968D01*
X96257Y43237D01*
X96857Y41390D01*
X96912Y41039D01*
X87359Y41039D01*
G37*
%LPD*%
%LPC*%
G36*
X247379Y41039D02*
X247379Y41039D01*
X247379Y50592D01*
X247730Y50537D01*
X249577Y49937D01*
X251308Y49055D01*
X252103Y48477D01*
X252879Y47913D01*
X254253Y46539D01*
X255395Y44968D01*
X256277Y43237D01*
X256877Y41390D01*
X256932Y41039D01*
X247379Y41039D01*
G37*
%LPD*%
%LPC*%
G36*
X372379Y41039D02*
X372379Y41039D01*
X372379Y50592D01*
X372730Y50537D01*
X374577Y49937D01*
X376308Y49055D01*
X377103Y48477D01*
X377879Y47913D01*
X379253Y46539D01*
X380395Y44968D01*
X381277Y43237D01*
X381877Y41390D01*
X381932Y41039D01*
X372379Y41039D01*
G37*
%LPD*%
%LPC*%
G36*
X730519Y358539D02*
X730519Y358539D01*
X730519Y368092D01*
X730870Y368037D01*
X732717Y367437D01*
X734448Y366555D01*
X736019Y365413D01*
X737393Y364039D01*
X738535Y362468D01*
X739417Y360737D01*
X740017Y358890D01*
X740072Y358539D01*
X730519Y358539D01*
G37*
%LPD*%
%LPC*%
G36*
X534939Y43579D02*
X534939Y43579D01*
X534939Y53132D01*
X535290Y53077D01*
X537137Y52477D01*
X538868Y51595D01*
X540439Y50453D01*
X541813Y49079D01*
X542955Y47508D01*
X543837Y45777D01*
X544437Y43930D01*
X544492Y43579D01*
X534939Y43579D01*
G37*
%LPD*%
%LPC*%
G36*
X409939Y43579D02*
X409939Y43579D01*
X409939Y53132D01*
X410290Y53077D01*
X412137Y52477D01*
X413868Y51595D01*
X415439Y50453D01*
X416813Y49079D01*
X417955Y47508D01*
X418837Y45777D01*
X419437Y43930D01*
X419492Y43579D01*
X409939Y43579D01*
G37*
%LPD*%
%LPC*%
G36*
X605519Y358539D02*
X605519Y358539D01*
X605519Y368092D01*
X605870Y368037D01*
X607717Y367437D01*
X609448Y366555D01*
X611019Y365413D01*
X612393Y364039D01*
X613535Y362468D01*
X614417Y360737D01*
X615017Y358890D01*
X615072Y358539D01*
X605519Y358539D01*
G37*
%LPD*%
%LPC*%
G36*
X605519Y208679D02*
X605519Y208679D01*
X605519Y218232D01*
X605870Y218177D01*
X607717Y217577D01*
X609448Y216695D01*
X611019Y215553D01*
X612393Y214179D01*
X613535Y212608D01*
X614417Y210877D01*
X615017Y209030D01*
X615072Y208679D01*
X605519Y208679D01*
G37*
%LPD*%
%LPC*%
G36*
X688609Y53739D02*
X688609Y53739D01*
X688609Y63292D01*
X688960Y63237D01*
X690807Y62637D01*
X692538Y61755D01*
X694109Y60613D01*
X695483Y59239D01*
X696625Y57668D01*
X697507Y55937D01*
X698107Y54090D01*
X698162Y53739D01*
X688609Y53739D01*
G37*
%LPD*%
%LPC*%
G36*
X563609Y53739D02*
X563609Y53739D01*
X563609Y63292D01*
X563960Y63237D01*
X565807Y62637D01*
X567538Y61755D01*
X569109Y60613D01*
X570483Y59239D01*
X571625Y57668D01*
X572507Y55937D01*
X573107Y54090D01*
X573162Y53739D01*
X563609Y53739D01*
G37*
%LPD*%
%LPC*%
G36*
X730519Y208679D02*
X730519Y208679D01*
X730519Y218232D01*
X730870Y218177D01*
X732717Y217577D01*
X734448Y216695D01*
X736019Y215553D01*
X737393Y214179D01*
X738535Y212608D01*
X739417Y210877D01*
X740017Y209030D01*
X740072Y208679D01*
X730519Y208679D01*
G37*
%LPD*%
%LPC*%
G36*
X548978Y53739D02*
X548978Y53739D01*
X549033Y54090D01*
X549633Y55937D01*
X550515Y57668D01*
X551657Y59239D01*
X553031Y60613D01*
X554602Y61755D01*
X556333Y62637D01*
X558180Y63237D01*
X558531Y63292D01*
X558531Y53739D01*
X548978Y53739D01*
G37*
%LPD*%
%LPC*%
G36*
X730519Y203601D02*
X730519Y203601D01*
X740072Y203601D01*
X740017Y203250D01*
X739417Y201403D01*
X738535Y199672D01*
X737393Y198101D01*
X736019Y196727D01*
X734448Y195585D01*
X732717Y194703D01*
X730870Y194103D01*
X730519Y194048D01*
X730519Y203601D01*
G37*
%LPD*%
%LPC*%
G36*
X715888Y208679D02*
X715888Y208679D01*
X715943Y209030D01*
X716543Y210877D01*
X717425Y212608D01*
X718567Y214179D01*
X719941Y215553D01*
X721512Y216695D01*
X723243Y217577D01*
X725090Y218177D01*
X725441Y218232D01*
X725441Y208679D01*
X715888Y208679D01*
G37*
%LPD*%
%LPC*%
G36*
X605519Y353461D02*
X605519Y353461D01*
X615072Y353461D01*
X615017Y353110D01*
X614417Y351263D01*
X613535Y349532D01*
X612393Y347961D01*
X611019Y346587D01*
X609448Y345445D01*
X607717Y344563D01*
X605870Y343963D01*
X605519Y343908D01*
X605519Y353461D01*
G37*
%LPD*%
%LPC*%
G36*
X673978Y53739D02*
X673978Y53739D01*
X674033Y54090D01*
X674633Y55937D01*
X675515Y57668D01*
X676657Y59239D01*
X678031Y60613D01*
X679602Y61755D01*
X681333Y62637D01*
X683180Y63237D01*
X683531Y63292D01*
X683531Y53739D01*
X673978Y53739D01*
G37*
%LPD*%
%LPC*%
G36*
X730519Y353461D02*
X730519Y353461D01*
X740072Y353461D01*
X740017Y353110D01*
X739417Y351263D01*
X738535Y349532D01*
X737393Y347961D01*
X736019Y346587D01*
X734448Y345445D01*
X732717Y344563D01*
X730870Y343963D01*
X730519Y343908D01*
X730519Y353461D01*
G37*
%LPD*%
%LPC*%
G36*
X232748Y41039D02*
X232748Y41039D01*
X232803Y41390D01*
X233403Y43237D01*
X234285Y44968D01*
X235427Y46539D01*
X236801Y47913D01*
X238372Y49055D01*
X240103Y49937D01*
X241950Y50537D01*
X242301Y50592D01*
X242301Y41039D01*
X232748Y41039D01*
G37*
%LPD*%
%LPC*%
G36*
X357748Y41039D02*
X357748Y41039D01*
X357803Y41390D01*
X358403Y43237D01*
X359285Y44968D01*
X360427Y46539D01*
X361801Y47913D01*
X363372Y49055D01*
X365103Y49937D01*
X366950Y50537D01*
X367301Y50592D01*
X367301Y41039D01*
X357748Y41039D01*
G37*
%LPD*%
%LPC*%
G36*
X395308Y43579D02*
X395308Y43579D01*
X395363Y43930D01*
X395963Y45777D01*
X396845Y47508D01*
X397987Y49079D01*
X399361Y50453D01*
X400932Y51595D01*
X402663Y52477D01*
X404510Y53077D01*
X404861Y53132D01*
X404861Y43579D01*
X395308Y43579D01*
G37*
%LPD*%
%LPC*%
G36*
X590888Y358539D02*
X590888Y358539D01*
X590943Y358890D01*
X591543Y360737D01*
X592425Y362468D01*
X593567Y364039D01*
X594941Y365413D01*
X596512Y366555D01*
X598243Y367437D01*
X600090Y368037D01*
X600441Y368092D01*
X600441Y358539D01*
X590888Y358539D01*
G37*
%LPD*%
%LPC*%
G36*
X715888Y358539D02*
X715888Y358539D01*
X715943Y358890D01*
X716543Y360737D01*
X717425Y362468D01*
X718567Y364039D01*
X719941Y365413D01*
X721512Y366555D01*
X723243Y367437D01*
X725090Y368037D01*
X725441Y368092D01*
X725441Y358539D01*
X715888Y358539D01*
G37*
%LPD*%
%LPC*%
G36*
X520308Y43579D02*
X520308Y43579D01*
X520363Y43930D01*
X520963Y45777D01*
X521845Y47508D01*
X522987Y49079D01*
X524361Y50453D01*
X525932Y51595D01*
X527663Y52477D01*
X529510Y53077D01*
X529861Y53132D01*
X529861Y43579D01*
X520308Y43579D01*
G37*
%LPD*%
%LPC*%
G36*
X197728Y41039D02*
X197728Y41039D01*
X197783Y41390D01*
X198383Y43237D01*
X199265Y44968D01*
X200407Y46539D01*
X201781Y47913D01*
X203352Y49055D01*
X205083Y49937D01*
X206930Y50537D01*
X207281Y50592D01*
X207281Y41039D01*
X197728Y41039D01*
G37*
%LPD*%
%LPC*%
G36*
X688609Y48661D02*
X688609Y48661D01*
X698162Y48661D01*
X698107Y48310D01*
X697507Y46463D01*
X696625Y44732D01*
X695483Y43161D01*
X694109Y41787D01*
X692538Y40645D01*
X690807Y39763D01*
X688960Y39163D01*
X688609Y39108D01*
X688609Y48661D01*
G37*
%LPD*%
%LPC*%
G36*
X563609Y48661D02*
X563609Y48661D01*
X573162Y48661D01*
X573107Y48310D01*
X572507Y46463D01*
X571625Y44732D01*
X570483Y43161D01*
X569109Y41787D01*
X567538Y40645D01*
X565807Y39763D01*
X563960Y39163D01*
X563609Y39108D01*
X563609Y48661D01*
G37*
%LPD*%
%LPC*%
G36*
X409939Y38501D02*
X409939Y38501D01*
X419492Y38501D01*
X419437Y38150D01*
X418837Y36303D01*
X417955Y34572D01*
X416813Y33001D01*
X415439Y31627D01*
X413868Y30485D01*
X412137Y29603D01*
X410290Y29003D01*
X409939Y28948D01*
X409939Y38501D01*
G37*
%LPD*%
%LPC*%
G36*
X534939Y38501D02*
X534939Y38501D01*
X544492Y38501D01*
X544437Y38150D01*
X543837Y36303D01*
X542955Y34572D01*
X541813Y33001D01*
X540439Y31627D01*
X538868Y30485D01*
X537137Y29603D01*
X535290Y29003D01*
X534939Y28948D01*
X534939Y38501D01*
G37*
%LPD*%
%LPC*%
G36*
X87359Y35961D02*
X87359Y35961D01*
X96912Y35961D01*
X96857Y35610D01*
X96257Y33763D01*
X95375Y32032D01*
X94233Y30461D01*
X92859Y29087D01*
X91288Y27945D01*
X89557Y27063D01*
X87710Y26463D01*
X87359Y26408D01*
X87359Y35961D01*
G37*
%LPD*%
%LPC*%
G36*
X372379Y35961D02*
X372379Y35961D01*
X381932Y35961D01*
X381877Y35610D01*
X381277Y33763D01*
X380395Y32032D01*
X379253Y30461D01*
X377879Y29087D01*
X376308Y27945D01*
X374577Y27063D01*
X372730Y26463D01*
X372379Y26408D01*
X372379Y35961D01*
G37*
%LPD*%
%LPC*%
G36*
X605519Y203601D02*
X605519Y203601D01*
X615072Y203601D01*
X615017Y203250D01*
X614417Y201403D01*
X613535Y199672D01*
X612393Y198101D01*
X611019Y196727D01*
X609448Y195585D01*
X607717Y194703D01*
X605870Y194103D01*
X605519Y194048D01*
X605519Y203601D01*
G37*
%LPD*%
%LPC*%
G36*
X590888Y208679D02*
X590888Y208679D01*
X590943Y209030D01*
X591543Y210877D01*
X592425Y212608D01*
X593567Y214179D01*
X594941Y215553D01*
X596512Y216695D01*
X598243Y217577D01*
X600090Y218177D01*
X600441Y218232D01*
X600441Y208679D01*
X590888Y208679D01*
G37*
%LPD*%
%LPC*%
G36*
X247379Y35961D02*
X247379Y35961D01*
X256932Y35961D01*
X256877Y35610D01*
X256277Y33763D01*
X255395Y32032D01*
X254253Y30461D01*
X252879Y29087D01*
X251308Y27945D01*
X249577Y27063D01*
X247730Y26463D01*
X247379Y26408D01*
X247379Y35961D01*
G37*
%LPD*%
%LPC*%
G36*
X212359Y35961D02*
X212359Y35961D01*
X221912Y35961D01*
X221857Y35610D01*
X221257Y33763D01*
X220375Y32032D01*
X219233Y30461D01*
X217859Y29087D01*
X216288Y27945D01*
X214557Y27063D01*
X212710Y26463D01*
X212359Y26408D01*
X212359Y35961D01*
G37*
%LPD*%
%LPC*%
G36*
X72728Y41039D02*
X72728Y41039D01*
X72783Y41390D01*
X73383Y43237D01*
X74265Y44968D01*
X75407Y46539D01*
X76781Y47913D01*
X78352Y49055D01*
X80083Y49937D01*
X81930Y50537D01*
X82281Y50592D01*
X82281Y41039D01*
X72728Y41039D01*
G37*
%LPD*%
%LPC*%
G36*
X206930Y26463D02*
X206930Y26463D01*
X205083Y27063D01*
X203352Y27945D01*
X201781Y29087D01*
X200407Y30461D01*
X199265Y32032D01*
X198383Y33763D01*
X197783Y35610D01*
X197728Y35961D01*
X207281Y35961D01*
X207281Y26408D01*
X206930Y26463D01*
G37*
%LPD*%
%LPC*%
G36*
X241950Y26463D02*
X241950Y26463D01*
X240103Y27063D01*
X238372Y27945D01*
X236801Y29087D01*
X235427Y30461D01*
X234285Y32032D01*
X233403Y33763D01*
X232803Y35610D01*
X232748Y35961D01*
X242301Y35961D01*
X242301Y26408D01*
X241950Y26463D01*
G37*
%LPD*%
%LPC*%
G36*
X600090Y194103D02*
X600090Y194103D01*
X598243Y194703D01*
X596512Y195585D01*
X594941Y196727D01*
X593567Y198101D01*
X592425Y199672D01*
X591543Y201403D01*
X590943Y203250D01*
X590888Y203601D01*
X600441Y203601D01*
X600441Y194048D01*
X600090Y194103D01*
G37*
%LPD*%
%LPC*%
G36*
X600090Y343963D02*
X600090Y343963D01*
X598243Y344563D01*
X596512Y345445D01*
X594941Y346587D01*
X593567Y347961D01*
X592425Y349532D01*
X591543Y351263D01*
X590943Y353110D01*
X590888Y353461D01*
X600441Y353461D01*
X600441Y343908D01*
X600090Y343963D01*
G37*
%LPD*%
%LPC*%
G36*
X725090Y343963D02*
X725090Y343963D01*
X723243Y344563D01*
X721512Y345445D01*
X719941Y346587D01*
X718567Y347961D01*
X717425Y349532D01*
X716543Y351263D01*
X715943Y353110D01*
X715888Y353461D01*
X725441Y353461D01*
X725441Y343908D01*
X725090Y343963D01*
G37*
%LPD*%
%LPC*%
G36*
X683180Y39163D02*
X683180Y39163D01*
X681333Y39763D01*
X679602Y40645D01*
X678031Y41787D01*
X676657Y43161D01*
X675515Y44732D01*
X674633Y46463D01*
X674033Y48310D01*
X673978Y48661D01*
X683531Y48661D01*
X683531Y39108D01*
X683180Y39163D01*
G37*
%LPD*%
%LPC*%
G36*
X366950Y26463D02*
X366950Y26463D01*
X365103Y27063D01*
X363372Y27945D01*
X361801Y29087D01*
X360427Y30461D01*
X359285Y32032D01*
X358403Y33763D01*
X357803Y35610D01*
X357748Y35961D01*
X367301Y35961D01*
X367301Y26408D01*
X366950Y26463D01*
G37*
%LPD*%
%LPC*%
G36*
X81930Y26463D02*
X81930Y26463D01*
X80083Y27063D01*
X78352Y27945D01*
X76781Y29087D01*
X75407Y30461D01*
X74265Y32032D01*
X73383Y33763D01*
X72783Y35610D01*
X72728Y35961D01*
X82281Y35961D01*
X82281Y26408D01*
X81930Y26463D01*
G37*
%LPD*%
%LPC*%
G36*
X558180Y39163D02*
X558180Y39163D01*
X556333Y39763D01*
X554602Y40645D01*
X553031Y41787D01*
X551657Y43161D01*
X550515Y44732D01*
X549633Y46463D01*
X549033Y48310D01*
X548978Y48661D01*
X558531Y48661D01*
X558531Y39108D01*
X558180Y39163D01*
G37*
%LPD*%
%LPC*%
G36*
X529510Y29003D02*
X529510Y29003D01*
X527663Y29603D01*
X525932Y30485D01*
X524361Y31627D01*
X522987Y33001D01*
X521845Y34572D01*
X520963Y36303D01*
X520363Y38150D01*
X520308Y38501D01*
X529861Y38501D01*
X529861Y28948D01*
X529510Y29003D01*
G37*
%LPD*%
%LPC*%
G36*
X404510Y29003D02*
X404510Y29003D01*
X402663Y29603D01*
X400932Y30485D01*
X399361Y31627D01*
X397987Y33001D01*
X396845Y34572D01*
X395963Y36303D01*
X395363Y38150D01*
X395308Y38501D01*
X404861Y38501D01*
X404861Y28948D01*
X404510Y29003D01*
G37*
%LPD*%
%LPC*%
G36*
X725090Y194103D02*
X725090Y194103D01*
X723243Y194703D01*
X721512Y195585D01*
X719941Y196727D01*
X718567Y198101D01*
X717425Y199672D01*
X716543Y201403D01*
X715943Y203250D01*
X715888Y203601D01*
X725441Y203601D01*
X725441Y194048D01*
X725090Y194103D01*
G37*
%LPD*%
%LPC*%
G36*
X297179Y447039D02*
X297179Y447039D01*
X297179Y453824D01*
X298345Y453446D01*
X299699Y452756D01*
X300928Y451863D01*
X302003Y450788D01*
X302896Y449559D01*
X303586Y448205D01*
X303964Y447039D01*
X297179Y447039D01*
G37*
%LPD*%
%LPC*%
G36*
X285316Y447039D02*
X285316Y447039D01*
X285694Y448205D01*
X286384Y449559D01*
X287277Y450788D01*
X288352Y451863D01*
X289581Y452756D01*
X290935Y453446D01*
X292101Y453824D01*
X292101Y447039D01*
X285316Y447039D01*
G37*
%LPD*%
%LPC*%
G36*
X297179Y441961D02*
X297179Y441961D01*
X303964Y441961D01*
X303586Y440795D01*
X302896Y439441D01*
X302003Y438212D01*
X300928Y437137D01*
X299699Y436244D01*
X298345Y435554D01*
X297179Y435176D01*
X297179Y441961D01*
G37*
%LPD*%
%LPC*%
G36*
X290935Y435554D02*
X290935Y435554D01*
X289581Y436244D01*
X288352Y437137D01*
X287277Y438212D01*
X286384Y439441D01*
X285694Y440795D01*
X285316Y441961D01*
X292101Y441961D01*
X292101Y435176D01*
X290935Y435554D01*
G37*
%LPD*%
%LPC*%
G36*
X316502Y167062D02*
X316502Y167062D01*
X316502Y173333D01*
X316836Y173267D01*
X318431Y172606D01*
X319867Y171647D01*
X321087Y170427D01*
X322046Y168991D01*
X322707Y167396D01*
X322773Y167062D01*
X316502Y167062D01*
G37*
%LPD*%
%LPC*%
G36*
X240302Y167062D02*
X240302Y167062D01*
X240302Y173333D01*
X240636Y173267D01*
X242231Y172606D01*
X243667Y171647D01*
X244887Y170427D01*
X245846Y168991D01*
X246507Y167396D01*
X246573Y167062D01*
X240302Y167062D01*
G37*
%LPD*%
%LPC*%
G36*
X240302Y395662D02*
X240302Y395662D01*
X240302Y401933D01*
X240636Y401867D01*
X242231Y401206D01*
X243667Y400247D01*
X244887Y399027D01*
X245846Y397591D01*
X246507Y395996D01*
X246573Y395662D01*
X240302Y395662D01*
G37*
%LPD*%
%LPC*%
G36*
X316502Y141662D02*
X316502Y141662D01*
X316502Y147933D01*
X316836Y147867D01*
X318431Y147206D01*
X319867Y146247D01*
X321087Y145027D01*
X322046Y143591D01*
X322707Y141996D01*
X322773Y141662D01*
X316502Y141662D01*
G37*
%LPD*%
%LPC*%
G36*
X316502Y395662D02*
X316502Y395662D01*
X316502Y401933D01*
X316836Y401867D01*
X318431Y401206D01*
X319867Y400247D01*
X321087Y399027D01*
X322046Y397591D01*
X322707Y395996D01*
X322773Y395662D01*
X316502Y395662D01*
G37*
%LPD*%
%LPC*%
G36*
X305787Y167062D02*
X305787Y167062D01*
X305853Y167396D01*
X306514Y168991D01*
X307473Y170427D01*
X308693Y171647D01*
X310129Y172606D01*
X311724Y173267D01*
X312058Y173333D01*
X312058Y167062D01*
X305787Y167062D01*
G37*
%LPD*%
%LPC*%
G36*
X229587Y395662D02*
X229587Y395662D01*
X229653Y395996D01*
X230314Y397591D01*
X231273Y399027D01*
X232493Y400247D01*
X233929Y401206D01*
X235524Y401867D01*
X235858Y401933D01*
X235858Y395662D01*
X229587Y395662D01*
G37*
%LPD*%
%LPC*%
G36*
X316502Y137218D02*
X316502Y137218D01*
X322773Y137218D01*
X322707Y136884D01*
X322046Y135289D01*
X321087Y133853D01*
X319867Y132633D01*
X318431Y131674D01*
X316836Y131013D01*
X316502Y130947D01*
X316502Y137218D01*
G37*
%LPD*%
%LPC*%
G36*
X305787Y141662D02*
X305787Y141662D01*
X305853Y141996D01*
X306514Y143591D01*
X307473Y145027D01*
X308693Y146247D01*
X310129Y147206D01*
X311724Y147867D01*
X312058Y147933D01*
X312058Y141662D01*
X305787Y141662D01*
G37*
%LPD*%
%LPC*%
G36*
X305787Y395662D02*
X305787Y395662D01*
X305853Y395996D01*
X306514Y397591D01*
X307473Y399027D01*
X308693Y400247D01*
X310129Y401206D01*
X311724Y401867D01*
X312058Y401933D01*
X312058Y395662D01*
X305787Y395662D01*
G37*
%LPD*%
%LPC*%
G36*
X240302Y162618D02*
X240302Y162618D01*
X246573Y162618D01*
X246507Y162284D01*
X245846Y160689D01*
X244887Y159253D01*
X243667Y158033D01*
X242231Y157074D01*
X240636Y156413D01*
X240302Y156347D01*
X240302Y162618D01*
G37*
%LPD*%
%LPC*%
G36*
X316502Y391218D02*
X316502Y391218D01*
X322773Y391218D01*
X322707Y390884D01*
X322046Y389289D01*
X321087Y387853D01*
X319867Y386633D01*
X318431Y385674D01*
X316836Y385013D01*
X316502Y384947D01*
X316502Y391218D01*
G37*
%LPD*%
%LPC*%
G36*
X229587Y167062D02*
X229587Y167062D01*
X229653Y167396D01*
X230314Y168991D01*
X231273Y170427D01*
X232493Y171647D01*
X233929Y172606D01*
X235524Y173267D01*
X235858Y173333D01*
X235858Y167062D01*
X229587Y167062D01*
G37*
%LPD*%
%LPC*%
G36*
X240302Y391218D02*
X240302Y391218D01*
X246573Y391218D01*
X246507Y390884D01*
X245846Y389289D01*
X244887Y387853D01*
X243667Y386633D01*
X242231Y385674D01*
X240636Y385013D01*
X240302Y384947D01*
X240302Y391218D01*
G37*
%LPD*%
%LPC*%
G36*
X316502Y162618D02*
X316502Y162618D01*
X322773Y162618D01*
X322707Y162284D01*
X322046Y160689D01*
X321087Y159253D01*
X319867Y158033D01*
X318431Y157074D01*
X316836Y156413D01*
X316502Y156347D01*
X316502Y162618D01*
G37*
%LPD*%
%LPC*%
G36*
X311724Y131013D02*
X311724Y131013D01*
X310129Y131674D01*
X308693Y132633D01*
X307473Y133853D01*
X306514Y135289D01*
X305853Y136884D01*
X305787Y137218D01*
X312058Y137218D01*
X312058Y130947D01*
X311724Y131013D01*
G37*
%LPD*%
%LPC*%
G36*
X235524Y156413D02*
X235524Y156413D01*
X233929Y157074D01*
X232493Y158033D01*
X231273Y159253D01*
X230314Y160689D01*
X229653Y162284D01*
X229587Y162618D01*
X235858Y162618D01*
X235858Y156347D01*
X235524Y156413D01*
G37*
%LPD*%
%LPC*%
G36*
X235524Y385013D02*
X235524Y385013D01*
X233929Y385674D01*
X232493Y386633D01*
X231273Y387853D01*
X230314Y389289D01*
X229653Y390884D01*
X229587Y391218D01*
X235858Y391218D01*
X235858Y384947D01*
X235524Y385013D01*
G37*
%LPD*%
%LPC*%
G36*
X311724Y156413D02*
X311724Y156413D01*
X310129Y157074D01*
X308693Y158033D01*
X307473Y159253D01*
X306514Y160689D01*
X305853Y162284D01*
X305787Y162618D01*
X312058Y162618D01*
X312058Y156347D01*
X311724Y156413D01*
G37*
%LPD*%
%LPC*%
G36*
X311724Y385013D02*
X311724Y385013D01*
X310129Y385674D01*
X308693Y386633D01*
X307473Y387853D01*
X306514Y389289D01*
X305853Y390884D01*
X305787Y391218D01*
X312058Y391218D01*
X312058Y384947D01*
X311724Y385013D01*
G37*
%LPD*%
%LPC*%
G36*
X84819Y38499D02*
X84819Y38499D01*
X84819Y38501D01*
X84821Y38501D01*
X84821Y38499D01*
X84819Y38499D01*
G37*
%LPD*%
%LPC*%
G36*
X209819Y38499D02*
X209819Y38499D01*
X209819Y38501D01*
X209821Y38501D01*
X209821Y38499D01*
X209819Y38499D01*
G37*
%LPD*%
%LPC*%
G36*
X244839Y38499D02*
X244839Y38499D01*
X244839Y38501D01*
X244841Y38501D01*
X244841Y38499D01*
X244839Y38499D01*
G37*
%LPD*%
%LPC*%
G36*
X369839Y38499D02*
X369839Y38499D01*
X369839Y38501D01*
X369841Y38501D01*
X369841Y38499D01*
X369839Y38499D01*
G37*
%LPD*%
%LPC*%
G36*
X407399Y41039D02*
X407399Y41039D01*
X407399Y41041D01*
X407401Y41041D01*
X407401Y41039D01*
X407399Y41039D01*
G37*
%LPD*%
%LPC*%
G36*
X532399Y41039D02*
X532399Y41039D01*
X532399Y41041D01*
X532401Y41041D01*
X532401Y41039D01*
X532399Y41039D01*
G37*
%LPD*%
%LPC*%
G36*
X727979Y355999D02*
X727979Y355999D01*
X727979Y356001D01*
X727981Y356001D01*
X727981Y355999D01*
X727979Y355999D01*
G37*
%LPD*%
%LPC*%
G36*
X602979Y206139D02*
X602979Y206139D01*
X602979Y206141D01*
X602981Y206141D01*
X602981Y206139D01*
X602979Y206139D01*
G37*
%LPD*%
%LPC*%
G36*
X294639Y444499D02*
X294639Y444499D01*
X294639Y444501D01*
X294641Y444501D01*
X294641Y444499D01*
X294639Y444499D01*
G37*
%LPD*%
%LPC*%
G36*
X686069Y51199D02*
X686069Y51199D01*
X686069Y51201D01*
X686071Y51201D01*
X686071Y51199D01*
X686069Y51199D01*
G37*
%LPD*%
%LPC*%
G36*
X561069Y51199D02*
X561069Y51199D01*
X561069Y51201D01*
X561071Y51201D01*
X561071Y51199D01*
X561069Y51199D01*
G37*
%LPD*%
%LPC*%
G36*
X727979Y206139D02*
X727979Y206139D01*
X727979Y206141D01*
X727981Y206141D01*
X727981Y206139D01*
X727979Y206139D01*
G37*
%LPD*%
%LPC*%
G36*
X602979Y355999D02*
X602979Y355999D01*
X602979Y356001D01*
X602981Y356001D01*
X602981Y355999D01*
X602979Y355999D01*
G37*
%LPD*%
D10*
X345440Y444500D03*
X320040Y444500D03*
X294640Y444500D03*
X269240Y444500D03*
D11*
X492080Y139440D03*
X492080Y164840D03*
X466680Y139440D03*
X466680Y164840D03*
X441280Y139440D03*
X441280Y164840D03*
X415880Y139440D03*
X415880Y164840D03*
X390480Y139440D03*
X390480Y164840D03*
X365080Y139440D03*
X365080Y164840D03*
X339680Y139440D03*
X339680Y164840D03*
X314280Y139440D03*
X314280Y164840D03*
X288880Y139440D03*
X288880Y164840D03*
X263480Y139440D03*
X263480Y164840D03*
X238080Y139440D03*
X238080Y164840D03*
X212680Y139440D03*
X212680Y164840D03*
X187280Y139440D03*
X187280Y164840D03*
X161880Y139440D03*
X161880Y164840D03*
X136480Y139440D03*
X136480Y164840D03*
X111080Y139440D03*
X111080Y164840D03*
X85680Y139440D03*
X85680Y164840D03*
X60280Y139440D03*
X60280Y164840D03*
X492080Y393440D03*
X492080Y418840D03*
X466680Y393440D03*
X466680Y418840D03*
X441280Y393440D03*
X441280Y418840D03*
X415880Y393440D03*
X415880Y418840D03*
X390480Y393440D03*
X390480Y418840D03*
X365080Y393440D03*
X365080Y418840D03*
X339680Y393440D03*
X339680Y418840D03*
X314280Y393440D03*
X314280Y418840D03*
X288880Y393440D03*
X288880Y418840D03*
X263480Y393440D03*
X263480Y418840D03*
X238080Y393440D03*
X238080Y418840D03*
X212680Y393440D03*
X212680Y418840D03*
X187280Y393440D03*
X187280Y418840D03*
X161880Y393440D03*
X161880Y418840D03*
X136480Y393440D03*
X136480Y418840D03*
X111080Y393440D03*
X111080Y418840D03*
X85680Y393440D03*
X85680Y418840D03*
X60280Y393440D03*
X60280Y418840D03*
D12*
X532400Y91040D03*
X532400Y41040D03*
X407400Y41040D03*
X407400Y91040D03*
X686070Y101200D03*
X686070Y51200D03*
X561070Y51200D03*
X561070Y101200D03*
X727980Y256140D03*
X727980Y206140D03*
X602980Y206140D03*
X602980Y256140D03*
X727980Y406000D03*
X727980Y356000D03*
X602980Y356000D03*
X602980Y406000D03*
X369840Y88500D03*
X369840Y38500D03*
X244840Y38500D03*
X244840Y88500D03*
X209820Y88500D03*
X209820Y38500D03*
X84820Y38500D03*
X84820Y88500D03*
D13*
X30480Y477520D03*
X725170Y477520D03*
X730250Y30480D03*
X30480Y30480D03*
D14*
X547370Y468630D03*
X495300Y445770D03*
X431800Y447040D03*
X392430Y449580D03*
X670560Y152400D03*
X393700Y337820D03*
X355600Y337820D03*
X60960Y114300D03*
X227330Y107950D03*
X387350Y105410D03*
X551180Y180340D03*
X576580Y233680D03*
X576580Y378460D03*
M02*
