G04 EAGLE Gerber RS-274X export*
G75*
%MOMM*%
%FSLAX34Y34*%
%LPD*%
%INCopper Layer 15*%
%IPPOS*%
%AMOC8*
5,1,8,0,0,1.08239X$1,22.5*%
G01*
%ADD10C,1.422400*%
%ADD11C,1.244600*%
%ADD12C,1.960000*%
%ADD13C,4.191000*%
%ADD14C,0.609600*%

G36*
X758718Y2544D02*
X758718Y2544D01*
X758737Y2542D01*
X758839Y2564D01*
X758941Y2580D01*
X758958Y2590D01*
X758978Y2594D01*
X759067Y2647D01*
X759158Y2696D01*
X759172Y2710D01*
X759189Y2720D01*
X759256Y2799D01*
X759328Y2874D01*
X759336Y2892D01*
X759349Y2907D01*
X759388Y3003D01*
X759431Y3097D01*
X759433Y3117D01*
X759441Y3135D01*
X759459Y3302D01*
X759459Y504698D01*
X759456Y504718D01*
X759458Y504737D01*
X759436Y504839D01*
X759420Y504941D01*
X759410Y504958D01*
X759406Y504978D01*
X759353Y505067D01*
X759304Y505158D01*
X759290Y505172D01*
X759280Y505189D01*
X759201Y505256D01*
X759126Y505328D01*
X759108Y505336D01*
X759093Y505349D01*
X758997Y505388D01*
X758903Y505431D01*
X758883Y505433D01*
X758865Y505441D01*
X758698Y505459D01*
X3302Y505459D01*
X3282Y505456D01*
X3263Y505458D01*
X3161Y505436D01*
X3059Y505420D01*
X3042Y505410D01*
X3022Y505406D01*
X2933Y505353D01*
X2842Y505304D01*
X2828Y505290D01*
X2811Y505280D01*
X2744Y505201D01*
X2672Y505126D01*
X2664Y505108D01*
X2651Y505093D01*
X2612Y504997D01*
X2569Y504903D01*
X2567Y504883D01*
X2559Y504865D01*
X2541Y504698D01*
X2541Y3302D01*
X2544Y3282D01*
X2542Y3263D01*
X2564Y3161D01*
X2580Y3059D01*
X2590Y3042D01*
X2594Y3022D01*
X2647Y2933D01*
X2696Y2842D01*
X2710Y2828D01*
X2720Y2811D01*
X2799Y2744D01*
X2874Y2672D01*
X2892Y2664D01*
X2907Y2651D01*
X3003Y2612D01*
X3097Y2569D01*
X3117Y2567D01*
X3135Y2559D01*
X3302Y2541D01*
X758698Y2541D01*
X758718Y2544D01*
G37*
%LPC*%
G36*
X720496Y454024D02*
X720496Y454024D01*
X711861Y457601D01*
X705251Y464211D01*
X701674Y472846D01*
X701674Y482194D01*
X705251Y490829D01*
X711861Y497439D01*
X720496Y501016D01*
X729844Y501016D01*
X738479Y497439D01*
X745089Y490829D01*
X748666Y482194D01*
X748666Y472846D01*
X745089Y464211D01*
X738479Y457601D01*
X729844Y454024D01*
X720496Y454024D01*
G37*
%LPD*%
%LPC*%
G36*
X25806Y454024D02*
X25806Y454024D01*
X17171Y457601D01*
X10561Y464211D01*
X6984Y472846D01*
X6984Y482194D01*
X10561Y490829D01*
X17171Y497439D01*
X25806Y501016D01*
X35154Y501016D01*
X43789Y497439D01*
X50399Y490829D01*
X53976Y482194D01*
X53976Y472846D01*
X50399Y464211D01*
X43789Y457601D01*
X35154Y454024D01*
X25806Y454024D01*
G37*
%LPD*%
%LPC*%
G36*
X25806Y6984D02*
X25806Y6984D01*
X17171Y10561D01*
X10561Y17171D01*
X6984Y25806D01*
X6984Y35154D01*
X10561Y43789D01*
X17171Y50399D01*
X25806Y53976D01*
X35154Y53976D01*
X43789Y50399D01*
X50399Y43789D01*
X53976Y35154D01*
X53976Y25806D01*
X50399Y17171D01*
X43789Y10561D01*
X35154Y6984D01*
X25806Y6984D01*
G37*
%LPD*%
%LPC*%
G36*
X725576Y6984D02*
X725576Y6984D01*
X716941Y10561D01*
X710331Y17171D01*
X706754Y25806D01*
X706754Y35154D01*
X710331Y43789D01*
X716941Y50399D01*
X725576Y53976D01*
X734924Y53976D01*
X743559Y50399D01*
X750169Y43789D01*
X753746Y35154D01*
X753746Y25806D01*
X750169Y17171D01*
X743559Y10561D01*
X734924Y6984D01*
X725576Y6984D01*
G37*
%LPD*%
%LPC*%
G36*
X83865Y431959D02*
X83865Y431959D01*
X79256Y433868D01*
X75728Y437396D01*
X73819Y442005D01*
X73819Y446995D01*
X75728Y451604D01*
X79256Y455132D01*
X83865Y457041D01*
X88855Y457041D01*
X93464Y455132D01*
X96992Y451604D01*
X98901Y446995D01*
X98901Y442005D01*
X96992Y437396D01*
X93464Y433868D01*
X88855Y431959D01*
X83865Y431959D01*
G37*
%LPD*%
%LPC*%
G36*
X520745Y431959D02*
X520745Y431959D01*
X516136Y433868D01*
X512608Y437396D01*
X510699Y442005D01*
X510699Y446995D01*
X512608Y451604D01*
X516136Y455132D01*
X520745Y457041D01*
X525735Y457041D01*
X530344Y455132D01*
X533872Y451604D01*
X535781Y446995D01*
X535781Y442005D01*
X533872Y437396D01*
X530344Y433868D01*
X525735Y431959D01*
X520745Y431959D01*
G37*
%LPD*%
%LPC*%
G36*
X83865Y203359D02*
X83865Y203359D01*
X79256Y205268D01*
X75728Y208796D01*
X73819Y213405D01*
X73819Y218395D01*
X75728Y223004D01*
X79256Y226532D01*
X83865Y228441D01*
X88855Y228441D01*
X93464Y226532D01*
X96992Y223004D01*
X98901Y218395D01*
X98901Y213405D01*
X96992Y208796D01*
X93464Y205268D01*
X88855Y203359D01*
X83865Y203359D01*
G37*
%LPD*%
%LPC*%
G36*
X520745Y203359D02*
X520745Y203359D01*
X516136Y205268D01*
X512608Y208796D01*
X510699Y213405D01*
X510699Y218395D01*
X512608Y223004D01*
X516136Y226532D01*
X520745Y228441D01*
X525735Y228441D01*
X530344Y226532D01*
X533872Y223004D01*
X535781Y218395D01*
X535781Y213405D01*
X533872Y208796D01*
X530344Y205268D01*
X525735Y203359D01*
X520745Y203359D01*
G37*
%LPD*%
%LPC*%
G36*
X242385Y26159D02*
X242385Y26159D01*
X237850Y28038D01*
X234378Y31510D01*
X232499Y36045D01*
X232499Y40955D01*
X234378Y45490D01*
X237850Y48962D01*
X242385Y50841D01*
X247295Y50841D01*
X251830Y48962D01*
X255302Y45490D01*
X257181Y40955D01*
X257181Y36045D01*
X255302Y31510D01*
X251830Y28038D01*
X247295Y26159D01*
X242385Y26159D01*
G37*
%LPD*%
%LPC*%
G36*
X242385Y76159D02*
X242385Y76159D01*
X237850Y78038D01*
X234378Y81510D01*
X232499Y86045D01*
X232499Y90955D01*
X234378Y95490D01*
X237850Y98962D01*
X242385Y100841D01*
X247295Y100841D01*
X251830Y98962D01*
X255302Y95490D01*
X257181Y90955D01*
X257181Y86045D01*
X255302Y81510D01*
X251830Y78038D01*
X247295Y76159D01*
X242385Y76159D01*
G37*
%LPD*%
%LPC*%
G36*
X367385Y26159D02*
X367385Y26159D01*
X362850Y28038D01*
X359378Y31510D01*
X357499Y36045D01*
X357499Y40955D01*
X359378Y45490D01*
X362850Y48962D01*
X367385Y50841D01*
X372295Y50841D01*
X376830Y48962D01*
X380302Y45490D01*
X382181Y40955D01*
X382181Y36045D01*
X380302Y31510D01*
X376830Y28038D01*
X372295Y26159D01*
X367385Y26159D01*
G37*
%LPD*%
%LPC*%
G36*
X82365Y26159D02*
X82365Y26159D01*
X77830Y28038D01*
X74358Y31510D01*
X72479Y36045D01*
X72479Y40955D01*
X74358Y45490D01*
X77830Y48962D01*
X82365Y50841D01*
X87275Y50841D01*
X91810Y48962D01*
X95282Y45490D01*
X97161Y40955D01*
X97161Y36045D01*
X95282Y31510D01*
X91810Y28038D01*
X87275Y26159D01*
X82365Y26159D01*
G37*
%LPD*%
%LPC*%
G36*
X207365Y26159D02*
X207365Y26159D01*
X202830Y28038D01*
X199358Y31510D01*
X197479Y36045D01*
X197479Y40955D01*
X199358Y45490D01*
X202830Y48962D01*
X207365Y50841D01*
X212275Y50841D01*
X216810Y48962D01*
X220282Y45490D01*
X222161Y40955D01*
X222161Y36045D01*
X220282Y31510D01*
X216810Y28038D01*
X212275Y26159D01*
X207365Y26159D01*
G37*
%LPD*%
%LPC*%
G36*
X404945Y28699D02*
X404945Y28699D01*
X400410Y30578D01*
X396938Y34050D01*
X395059Y38585D01*
X395059Y43495D01*
X396938Y48030D01*
X400410Y51502D01*
X404945Y53381D01*
X409855Y53381D01*
X414390Y51502D01*
X417862Y48030D01*
X419741Y43495D01*
X419741Y38585D01*
X417862Y34050D01*
X414390Y30578D01*
X409855Y28699D01*
X404945Y28699D01*
G37*
%LPD*%
%LPC*%
G36*
X529945Y28699D02*
X529945Y28699D01*
X525410Y30578D01*
X521938Y34050D01*
X520059Y38585D01*
X520059Y43495D01*
X521938Y48030D01*
X525410Y51502D01*
X529945Y53381D01*
X534855Y53381D01*
X539390Y51502D01*
X542862Y48030D01*
X544741Y43495D01*
X544741Y38585D01*
X542862Y34050D01*
X539390Y30578D01*
X534855Y28699D01*
X529945Y28699D01*
G37*
%LPD*%
%LPC*%
G36*
X600525Y193799D02*
X600525Y193799D01*
X595990Y195678D01*
X592518Y199150D01*
X590639Y203685D01*
X590639Y208595D01*
X592518Y213130D01*
X595990Y216602D01*
X600525Y218481D01*
X605435Y218481D01*
X609970Y216602D01*
X613442Y213130D01*
X615321Y208595D01*
X615321Y203685D01*
X613442Y199150D01*
X609970Y195678D01*
X605435Y193799D01*
X600525Y193799D01*
G37*
%LPD*%
%LPC*%
G36*
X683615Y88859D02*
X683615Y88859D01*
X679080Y90738D01*
X675608Y94210D01*
X673729Y98745D01*
X673729Y103655D01*
X675608Y108190D01*
X679080Y111662D01*
X683615Y113541D01*
X688525Y113541D01*
X693060Y111662D01*
X696532Y108190D01*
X698411Y103655D01*
X698411Y98745D01*
X696532Y94210D01*
X693060Y90738D01*
X688525Y88859D01*
X683615Y88859D01*
G37*
%LPD*%
%LPC*%
G36*
X558615Y88859D02*
X558615Y88859D01*
X554080Y90738D01*
X550608Y94210D01*
X548729Y98745D01*
X548729Y103655D01*
X550608Y108190D01*
X554080Y111662D01*
X558615Y113541D01*
X563525Y113541D01*
X568060Y111662D01*
X571532Y108190D01*
X573411Y103655D01*
X573411Y98745D01*
X571532Y94210D01*
X568060Y90738D01*
X563525Y88859D01*
X558615Y88859D01*
G37*
%LPD*%
%LPC*%
G36*
X529945Y78699D02*
X529945Y78699D01*
X525410Y80578D01*
X521938Y84050D01*
X520059Y88585D01*
X520059Y93495D01*
X521938Y98030D01*
X525410Y101502D01*
X529945Y103381D01*
X534855Y103381D01*
X539390Y101502D01*
X542862Y98030D01*
X544741Y93495D01*
X544741Y88585D01*
X542862Y84050D01*
X539390Y80578D01*
X534855Y78699D01*
X529945Y78699D01*
G37*
%LPD*%
%LPC*%
G36*
X404945Y78699D02*
X404945Y78699D01*
X400410Y80578D01*
X396938Y84050D01*
X395059Y88585D01*
X395059Y93495D01*
X396938Y98030D01*
X400410Y101502D01*
X404945Y103381D01*
X409855Y103381D01*
X414390Y101502D01*
X417862Y98030D01*
X419741Y93495D01*
X419741Y88585D01*
X417862Y84050D01*
X414390Y80578D01*
X409855Y78699D01*
X404945Y78699D01*
G37*
%LPD*%
%LPC*%
G36*
X367385Y76159D02*
X367385Y76159D01*
X362850Y78038D01*
X359378Y81510D01*
X357499Y86045D01*
X357499Y90955D01*
X359378Y95490D01*
X362850Y98962D01*
X367385Y100841D01*
X372295Y100841D01*
X376830Y98962D01*
X380302Y95490D01*
X382181Y90955D01*
X382181Y86045D01*
X380302Y81510D01*
X376830Y78038D01*
X372295Y76159D01*
X367385Y76159D01*
G37*
%LPD*%
%LPC*%
G36*
X725525Y393659D02*
X725525Y393659D01*
X720990Y395538D01*
X717518Y399010D01*
X715639Y403545D01*
X715639Y408455D01*
X717518Y412990D01*
X720990Y416462D01*
X725525Y418341D01*
X730435Y418341D01*
X734970Y416462D01*
X738442Y412990D01*
X740321Y408455D01*
X740321Y403545D01*
X738442Y399010D01*
X734970Y395538D01*
X730435Y393659D01*
X725525Y393659D01*
G37*
%LPD*%
%LPC*%
G36*
X725525Y193799D02*
X725525Y193799D01*
X720990Y195678D01*
X717518Y199150D01*
X715639Y203685D01*
X715639Y208595D01*
X717518Y213130D01*
X720990Y216602D01*
X725525Y218481D01*
X730435Y218481D01*
X734970Y216602D01*
X738442Y213130D01*
X740321Y208595D01*
X740321Y203685D01*
X738442Y199150D01*
X734970Y195678D01*
X730435Y193799D01*
X725525Y193799D01*
G37*
%LPD*%
%LPC*%
G36*
X600525Y393659D02*
X600525Y393659D01*
X595990Y395538D01*
X592518Y399010D01*
X590639Y403545D01*
X590639Y408455D01*
X592518Y412990D01*
X595990Y416462D01*
X600525Y418341D01*
X605435Y418341D01*
X609970Y416462D01*
X613442Y412990D01*
X615321Y408455D01*
X615321Y403545D01*
X613442Y399010D01*
X609970Y395538D01*
X605435Y393659D01*
X600525Y393659D01*
G37*
%LPD*%
%LPC*%
G36*
X558615Y38859D02*
X558615Y38859D01*
X554080Y40738D01*
X550608Y44210D01*
X548729Y48745D01*
X548729Y53655D01*
X550608Y58190D01*
X554080Y61662D01*
X558615Y63541D01*
X563525Y63541D01*
X568060Y61662D01*
X571532Y58190D01*
X573411Y53655D01*
X573411Y48745D01*
X571532Y44210D01*
X568060Y40738D01*
X563525Y38859D01*
X558615Y38859D01*
G37*
%LPD*%
%LPC*%
G36*
X600525Y243799D02*
X600525Y243799D01*
X595990Y245678D01*
X592518Y249150D01*
X590639Y253685D01*
X590639Y258595D01*
X592518Y263130D01*
X595990Y266602D01*
X600525Y268481D01*
X605435Y268481D01*
X609970Y266602D01*
X613442Y263130D01*
X615321Y258595D01*
X615321Y253685D01*
X613442Y249150D01*
X609970Y245678D01*
X605435Y243799D01*
X600525Y243799D01*
G37*
%LPD*%
%LPC*%
G36*
X725525Y243799D02*
X725525Y243799D01*
X720990Y245678D01*
X717518Y249150D01*
X715639Y253685D01*
X715639Y258595D01*
X717518Y263130D01*
X720990Y266602D01*
X725525Y268481D01*
X730435Y268481D01*
X734970Y266602D01*
X738442Y263130D01*
X740321Y258595D01*
X740321Y253685D01*
X738442Y249150D01*
X734970Y245678D01*
X730435Y243799D01*
X725525Y243799D01*
G37*
%LPD*%
%LPC*%
G36*
X600525Y343659D02*
X600525Y343659D01*
X595990Y345538D01*
X592518Y349010D01*
X590639Y353545D01*
X590639Y358455D01*
X592518Y362990D01*
X595990Y366462D01*
X600525Y368341D01*
X605435Y368341D01*
X609970Y366462D01*
X613442Y362990D01*
X615321Y358455D01*
X615321Y353545D01*
X613442Y349010D01*
X609970Y345538D01*
X605435Y343659D01*
X600525Y343659D01*
G37*
%LPD*%
%LPC*%
G36*
X725525Y343659D02*
X725525Y343659D01*
X720990Y345538D01*
X717518Y349010D01*
X715639Y353545D01*
X715639Y358455D01*
X717518Y362990D01*
X720990Y366462D01*
X725525Y368341D01*
X730435Y368341D01*
X734970Y366462D01*
X738442Y362990D01*
X740321Y358455D01*
X740321Y353545D01*
X738442Y349010D01*
X734970Y345538D01*
X730435Y343659D01*
X725525Y343659D01*
G37*
%LPD*%
%LPC*%
G36*
X207365Y76159D02*
X207365Y76159D01*
X202830Y78038D01*
X199358Y81510D01*
X197479Y86045D01*
X197479Y90955D01*
X199358Y95490D01*
X202830Y98962D01*
X207365Y100841D01*
X212275Y100841D01*
X216810Y98962D01*
X220282Y95490D01*
X222161Y90955D01*
X222161Y86045D01*
X220282Y81510D01*
X216810Y78038D01*
X212275Y76159D01*
X207365Y76159D01*
G37*
%LPD*%
%LPC*%
G36*
X82365Y76159D02*
X82365Y76159D01*
X77830Y78038D01*
X74358Y81510D01*
X72479Y86045D01*
X72479Y90955D01*
X74358Y95490D01*
X77830Y98962D01*
X82365Y100841D01*
X87275Y100841D01*
X91810Y98962D01*
X95282Y95490D01*
X97161Y90955D01*
X97161Y86045D01*
X95282Y81510D01*
X91810Y78038D01*
X87275Y76159D01*
X82365Y76159D01*
G37*
%LPD*%
%LPC*%
G36*
X683615Y38859D02*
X683615Y38859D01*
X679080Y40738D01*
X675608Y44210D01*
X673729Y48745D01*
X673729Y53655D01*
X675608Y58190D01*
X679080Y61662D01*
X683615Y63541D01*
X688525Y63541D01*
X693060Y61662D01*
X696532Y58190D01*
X698411Y53655D01*
X698411Y48745D01*
X696532Y44210D01*
X693060Y40738D01*
X688525Y38859D01*
X683615Y38859D01*
G37*
%LPD*%
%LPC*%
G36*
X318120Y434847D02*
X318120Y434847D01*
X314572Y436317D01*
X311857Y439032D01*
X310387Y442580D01*
X310387Y446420D01*
X311857Y449968D01*
X314572Y452683D01*
X318120Y454153D01*
X321960Y454153D01*
X325508Y452683D01*
X328223Y449968D01*
X329693Y446420D01*
X329693Y442580D01*
X328223Y439032D01*
X325508Y436317D01*
X321960Y434847D01*
X318120Y434847D01*
G37*
%LPD*%
%LPC*%
G36*
X343520Y434847D02*
X343520Y434847D01*
X339972Y436317D01*
X337257Y439032D01*
X335787Y442580D01*
X335787Y446420D01*
X337257Y449968D01*
X339972Y452683D01*
X343520Y454153D01*
X347360Y454153D01*
X350908Y452683D01*
X353623Y449968D01*
X355093Y446420D01*
X355093Y442580D01*
X353623Y439032D01*
X350908Y436317D01*
X347360Y434847D01*
X343520Y434847D01*
G37*
%LPD*%
%LPC*%
G36*
X292720Y434847D02*
X292720Y434847D01*
X289172Y436317D01*
X286457Y439032D01*
X284987Y442580D01*
X284987Y446420D01*
X286457Y449968D01*
X289172Y452683D01*
X292720Y454153D01*
X296560Y454153D01*
X300108Y452683D01*
X302823Y449968D01*
X304293Y446420D01*
X304293Y442580D01*
X302823Y439032D01*
X300108Y436317D01*
X296560Y434847D01*
X292720Y434847D01*
G37*
%LPD*%
%LPC*%
G36*
X58537Y410076D02*
X58537Y410076D01*
X55316Y411410D01*
X52850Y413876D01*
X51516Y417097D01*
X51516Y420583D01*
X52850Y423804D01*
X55316Y426270D01*
X58537Y427604D01*
X62023Y427604D01*
X65244Y426270D01*
X67710Y423804D01*
X69044Y420583D01*
X69044Y417097D01*
X67710Y413876D01*
X65244Y411410D01*
X62023Y410076D01*
X58537Y410076D01*
G37*
%LPD*%
%LPC*%
G36*
X490337Y384676D02*
X490337Y384676D01*
X487116Y386010D01*
X484650Y388476D01*
X483316Y391697D01*
X483316Y395183D01*
X484650Y398404D01*
X487116Y400870D01*
X490337Y402204D01*
X493823Y402204D01*
X497044Y400870D01*
X499510Y398404D01*
X500844Y395183D01*
X500844Y391697D01*
X499510Y388476D01*
X497044Y386010D01*
X493823Y384676D01*
X490337Y384676D01*
G37*
%LPD*%
%LPC*%
G36*
X464937Y384676D02*
X464937Y384676D01*
X461716Y386010D01*
X459250Y388476D01*
X457916Y391697D01*
X457916Y395183D01*
X459250Y398404D01*
X461716Y400870D01*
X464937Y402204D01*
X468423Y402204D01*
X471644Y400870D01*
X474110Y398404D01*
X475444Y395183D01*
X475444Y391697D01*
X474110Y388476D01*
X471644Y386010D01*
X468423Y384676D01*
X464937Y384676D01*
G37*
%LPD*%
%LPC*%
G36*
X439537Y384676D02*
X439537Y384676D01*
X436316Y386010D01*
X433850Y388476D01*
X432516Y391697D01*
X432516Y395183D01*
X433850Y398404D01*
X436316Y400870D01*
X439537Y402204D01*
X443023Y402204D01*
X446244Y400870D01*
X448710Y398404D01*
X450044Y395183D01*
X450044Y391697D01*
X448710Y388476D01*
X446244Y386010D01*
X443023Y384676D01*
X439537Y384676D01*
G37*
%LPD*%
%LPC*%
G36*
X414137Y384676D02*
X414137Y384676D01*
X410916Y386010D01*
X408450Y388476D01*
X407116Y391697D01*
X407116Y395183D01*
X408450Y398404D01*
X410916Y400870D01*
X414137Y402204D01*
X417623Y402204D01*
X420844Y400870D01*
X423310Y398404D01*
X424644Y395183D01*
X424644Y391697D01*
X423310Y388476D01*
X420844Y386010D01*
X417623Y384676D01*
X414137Y384676D01*
G37*
%LPD*%
%LPC*%
G36*
X388737Y384676D02*
X388737Y384676D01*
X385516Y386010D01*
X383050Y388476D01*
X381716Y391697D01*
X381716Y395183D01*
X383050Y398404D01*
X385516Y400870D01*
X388737Y402204D01*
X392223Y402204D01*
X395444Y400870D01*
X397910Y398404D01*
X399244Y395183D01*
X399244Y391697D01*
X397910Y388476D01*
X395444Y386010D01*
X392223Y384676D01*
X388737Y384676D01*
G37*
%LPD*%
%LPC*%
G36*
X363337Y384676D02*
X363337Y384676D01*
X360116Y386010D01*
X357650Y388476D01*
X356316Y391697D01*
X356316Y395183D01*
X357650Y398404D01*
X360116Y400870D01*
X363337Y402204D01*
X366823Y402204D01*
X370044Y400870D01*
X372510Y398404D01*
X373844Y395183D01*
X373844Y391697D01*
X372510Y388476D01*
X370044Y386010D01*
X366823Y384676D01*
X363337Y384676D01*
G37*
%LPD*%
%LPC*%
G36*
X337937Y384676D02*
X337937Y384676D01*
X334716Y386010D01*
X332250Y388476D01*
X330916Y391697D01*
X330916Y395183D01*
X332250Y398404D01*
X334716Y400870D01*
X337937Y402204D01*
X341423Y402204D01*
X344644Y400870D01*
X347110Y398404D01*
X348444Y395183D01*
X348444Y391697D01*
X347110Y388476D01*
X344644Y386010D01*
X341423Y384676D01*
X337937Y384676D01*
G37*
%LPD*%
%LPC*%
G36*
X312537Y384676D02*
X312537Y384676D01*
X309316Y386010D01*
X306850Y388476D01*
X305516Y391697D01*
X305516Y395183D01*
X306850Y398404D01*
X309316Y400870D01*
X312537Y402204D01*
X316023Y402204D01*
X319244Y400870D01*
X321710Y398404D01*
X323044Y395183D01*
X323044Y391697D01*
X321710Y388476D01*
X319244Y386010D01*
X316023Y384676D01*
X312537Y384676D01*
G37*
%LPD*%
%LPC*%
G36*
X287137Y384676D02*
X287137Y384676D01*
X283916Y386010D01*
X281450Y388476D01*
X280116Y391697D01*
X280116Y395183D01*
X281450Y398404D01*
X283916Y400870D01*
X287137Y402204D01*
X290623Y402204D01*
X293844Y400870D01*
X296310Y398404D01*
X297644Y395183D01*
X297644Y391697D01*
X296310Y388476D01*
X293844Y386010D01*
X290623Y384676D01*
X287137Y384676D01*
G37*
%LPD*%
%LPC*%
G36*
X261737Y384676D02*
X261737Y384676D01*
X258516Y386010D01*
X256050Y388476D01*
X254716Y391697D01*
X254716Y395183D01*
X256050Y398404D01*
X258516Y400870D01*
X261737Y402204D01*
X265223Y402204D01*
X268444Y400870D01*
X270910Y398404D01*
X272244Y395183D01*
X272244Y391697D01*
X270910Y388476D01*
X268444Y386010D01*
X265223Y384676D01*
X261737Y384676D01*
G37*
%LPD*%
%LPC*%
G36*
X236337Y384676D02*
X236337Y384676D01*
X233116Y386010D01*
X230650Y388476D01*
X229316Y391697D01*
X229316Y395183D01*
X230650Y398404D01*
X233116Y400870D01*
X236337Y402204D01*
X239823Y402204D01*
X243044Y400870D01*
X245510Y398404D01*
X246844Y395183D01*
X246844Y391697D01*
X245510Y388476D01*
X243044Y386010D01*
X239823Y384676D01*
X236337Y384676D01*
G37*
%LPD*%
%LPC*%
G36*
X185537Y384676D02*
X185537Y384676D01*
X182316Y386010D01*
X179850Y388476D01*
X178516Y391697D01*
X178516Y395183D01*
X179850Y398404D01*
X182316Y400870D01*
X185537Y402204D01*
X189023Y402204D01*
X192244Y400870D01*
X194710Y398404D01*
X196044Y395183D01*
X196044Y391697D01*
X194710Y388476D01*
X192244Y386010D01*
X189023Y384676D01*
X185537Y384676D01*
G37*
%LPD*%
%LPC*%
G36*
X160137Y384676D02*
X160137Y384676D01*
X156916Y386010D01*
X154450Y388476D01*
X153116Y391697D01*
X153116Y395183D01*
X154450Y398404D01*
X156916Y400870D01*
X160137Y402204D01*
X163623Y402204D01*
X166844Y400870D01*
X169310Y398404D01*
X170644Y395183D01*
X170644Y391697D01*
X169310Y388476D01*
X166844Y386010D01*
X163623Y384676D01*
X160137Y384676D01*
G37*
%LPD*%
%LPC*%
G36*
X134737Y384676D02*
X134737Y384676D01*
X131516Y386010D01*
X129050Y388476D01*
X127716Y391697D01*
X127716Y395183D01*
X129050Y398404D01*
X131516Y400870D01*
X134737Y402204D01*
X138223Y402204D01*
X141444Y400870D01*
X143910Y398404D01*
X145244Y395183D01*
X145244Y391697D01*
X143910Y388476D01*
X141444Y386010D01*
X138223Y384676D01*
X134737Y384676D01*
G37*
%LPD*%
%LPC*%
G36*
X109337Y384676D02*
X109337Y384676D01*
X106116Y386010D01*
X103650Y388476D01*
X102316Y391697D01*
X102316Y395183D01*
X103650Y398404D01*
X106116Y400870D01*
X109337Y402204D01*
X112823Y402204D01*
X116044Y400870D01*
X118510Y398404D01*
X119844Y395183D01*
X119844Y391697D01*
X118510Y388476D01*
X116044Y386010D01*
X112823Y384676D01*
X109337Y384676D01*
G37*
%LPD*%
%LPC*%
G36*
X83937Y384676D02*
X83937Y384676D01*
X80716Y386010D01*
X78250Y388476D01*
X76916Y391697D01*
X76916Y395183D01*
X78250Y398404D01*
X80716Y400870D01*
X83937Y402204D01*
X87423Y402204D01*
X90644Y400870D01*
X93110Y398404D01*
X94444Y395183D01*
X94444Y391697D01*
X93110Y388476D01*
X90644Y386010D01*
X87423Y384676D01*
X83937Y384676D01*
G37*
%LPD*%
%LPC*%
G36*
X58537Y384676D02*
X58537Y384676D01*
X55316Y386010D01*
X52850Y388476D01*
X51516Y391697D01*
X51516Y395183D01*
X52850Y398404D01*
X55316Y400870D01*
X58537Y402204D01*
X62023Y402204D01*
X65244Y400870D01*
X67710Y398404D01*
X69044Y395183D01*
X69044Y391697D01*
X67710Y388476D01*
X65244Y386010D01*
X62023Y384676D01*
X58537Y384676D01*
G37*
%LPD*%
%LPC*%
G36*
X83937Y410076D02*
X83937Y410076D01*
X80716Y411410D01*
X78250Y413876D01*
X76916Y417097D01*
X76916Y420583D01*
X78250Y423804D01*
X80716Y426270D01*
X83937Y427604D01*
X87423Y427604D01*
X90644Y426270D01*
X93110Y423804D01*
X94444Y420583D01*
X94444Y417097D01*
X93110Y413876D01*
X90644Y411410D01*
X87423Y410076D01*
X83937Y410076D01*
G37*
%LPD*%
%LPC*%
G36*
X109337Y410076D02*
X109337Y410076D01*
X106116Y411410D01*
X103650Y413876D01*
X102316Y417097D01*
X102316Y420583D01*
X103650Y423804D01*
X106116Y426270D01*
X109337Y427604D01*
X112823Y427604D01*
X116044Y426270D01*
X118510Y423804D01*
X119844Y420583D01*
X119844Y417097D01*
X118510Y413876D01*
X116044Y411410D01*
X112823Y410076D01*
X109337Y410076D01*
G37*
%LPD*%
%LPC*%
G36*
X134737Y410076D02*
X134737Y410076D01*
X131516Y411410D01*
X129050Y413876D01*
X127716Y417097D01*
X127716Y420583D01*
X129050Y423804D01*
X131516Y426270D01*
X134737Y427604D01*
X138223Y427604D01*
X141444Y426270D01*
X143910Y423804D01*
X145244Y420583D01*
X145244Y417097D01*
X143910Y413876D01*
X141444Y411410D01*
X138223Y410076D01*
X134737Y410076D01*
G37*
%LPD*%
%LPC*%
G36*
X160137Y410076D02*
X160137Y410076D01*
X156916Y411410D01*
X154450Y413876D01*
X153116Y417097D01*
X153116Y420583D01*
X154450Y423804D01*
X156916Y426270D01*
X160137Y427604D01*
X163623Y427604D01*
X166844Y426270D01*
X169310Y423804D01*
X170644Y420583D01*
X170644Y417097D01*
X169310Y413876D01*
X166844Y411410D01*
X163623Y410076D01*
X160137Y410076D01*
G37*
%LPD*%
%LPC*%
G36*
X464937Y156076D02*
X464937Y156076D01*
X461716Y157410D01*
X459250Y159876D01*
X457916Y163097D01*
X457916Y166583D01*
X459250Y169804D01*
X461716Y172270D01*
X464937Y173604D01*
X468423Y173604D01*
X471644Y172270D01*
X474110Y169804D01*
X475444Y166583D01*
X475444Y163097D01*
X474110Y159876D01*
X471644Y157410D01*
X468423Y156076D01*
X464937Y156076D01*
G37*
%LPD*%
%LPC*%
G36*
X236337Y410076D02*
X236337Y410076D01*
X233116Y411410D01*
X230650Y413876D01*
X229316Y417097D01*
X229316Y420583D01*
X230650Y423804D01*
X233116Y426270D01*
X236337Y427604D01*
X239823Y427604D01*
X243044Y426270D01*
X245510Y423804D01*
X246844Y420583D01*
X246844Y417097D01*
X245510Y413876D01*
X243044Y411410D01*
X239823Y410076D01*
X236337Y410076D01*
G37*
%LPD*%
%LPC*%
G36*
X261737Y410076D02*
X261737Y410076D01*
X258516Y411410D01*
X256050Y413876D01*
X254716Y417097D01*
X254716Y420583D01*
X256050Y423804D01*
X258516Y426270D01*
X261737Y427604D01*
X265223Y427604D01*
X268444Y426270D01*
X270910Y423804D01*
X272244Y420583D01*
X272244Y417097D01*
X270910Y413876D01*
X268444Y411410D01*
X265223Y410076D01*
X261737Y410076D01*
G37*
%LPD*%
%LPC*%
G36*
X287137Y410076D02*
X287137Y410076D01*
X283916Y411410D01*
X281450Y413876D01*
X280116Y417097D01*
X280116Y420583D01*
X281450Y423804D01*
X283916Y426270D01*
X287137Y427604D01*
X290623Y427604D01*
X293844Y426270D01*
X296310Y423804D01*
X297644Y420583D01*
X297644Y417097D01*
X296310Y413876D01*
X293844Y411410D01*
X290623Y410076D01*
X287137Y410076D01*
G37*
%LPD*%
%LPC*%
G36*
X312537Y410076D02*
X312537Y410076D01*
X309316Y411410D01*
X306850Y413876D01*
X305516Y417097D01*
X305516Y420583D01*
X306850Y423804D01*
X309316Y426270D01*
X312537Y427604D01*
X316023Y427604D01*
X319244Y426270D01*
X321710Y423804D01*
X323044Y420583D01*
X323044Y417097D01*
X321710Y413876D01*
X319244Y411410D01*
X316023Y410076D01*
X312537Y410076D01*
G37*
%LPD*%
%LPC*%
G36*
X337937Y410076D02*
X337937Y410076D01*
X334716Y411410D01*
X332250Y413876D01*
X330916Y417097D01*
X330916Y420583D01*
X332250Y423804D01*
X334716Y426270D01*
X337937Y427604D01*
X341423Y427604D01*
X344644Y426270D01*
X347110Y423804D01*
X348444Y420583D01*
X348444Y417097D01*
X347110Y413876D01*
X344644Y411410D01*
X341423Y410076D01*
X337937Y410076D01*
G37*
%LPD*%
%LPC*%
G36*
X363337Y410076D02*
X363337Y410076D01*
X360116Y411410D01*
X357650Y413876D01*
X356316Y417097D01*
X356316Y420583D01*
X357650Y423804D01*
X360116Y426270D01*
X363337Y427604D01*
X366823Y427604D01*
X370044Y426270D01*
X372510Y423804D01*
X373844Y420583D01*
X373844Y417097D01*
X372510Y413876D01*
X370044Y411410D01*
X366823Y410076D01*
X363337Y410076D01*
G37*
%LPD*%
%LPC*%
G36*
X388737Y410076D02*
X388737Y410076D01*
X385516Y411410D01*
X383050Y413876D01*
X381716Y417097D01*
X381716Y420583D01*
X383050Y423804D01*
X385516Y426270D01*
X388737Y427604D01*
X392223Y427604D01*
X395444Y426270D01*
X397910Y423804D01*
X399244Y420583D01*
X399244Y417097D01*
X397910Y413876D01*
X395444Y411410D01*
X392223Y410076D01*
X388737Y410076D01*
G37*
%LPD*%
%LPC*%
G36*
X414137Y410076D02*
X414137Y410076D01*
X410916Y411410D01*
X408450Y413876D01*
X407116Y417097D01*
X407116Y420583D01*
X408450Y423804D01*
X410916Y426270D01*
X414137Y427604D01*
X417623Y427604D01*
X420844Y426270D01*
X423310Y423804D01*
X424644Y420583D01*
X424644Y417097D01*
X423310Y413876D01*
X420844Y411410D01*
X417623Y410076D01*
X414137Y410076D01*
G37*
%LPD*%
%LPC*%
G36*
X490337Y156076D02*
X490337Y156076D01*
X487116Y157410D01*
X484650Y159876D01*
X483316Y163097D01*
X483316Y166583D01*
X484650Y169804D01*
X487116Y172270D01*
X490337Y173604D01*
X493823Y173604D01*
X497044Y172270D01*
X499510Y169804D01*
X500844Y166583D01*
X500844Y163097D01*
X499510Y159876D01*
X497044Y157410D01*
X493823Y156076D01*
X490337Y156076D01*
G37*
%LPD*%
%LPC*%
G36*
X439537Y410076D02*
X439537Y410076D01*
X436316Y411410D01*
X433850Y413876D01*
X432516Y417097D01*
X432516Y420583D01*
X433850Y423804D01*
X436316Y426270D01*
X439537Y427604D01*
X443023Y427604D01*
X446244Y426270D01*
X448710Y423804D01*
X450044Y420583D01*
X450044Y417097D01*
X448710Y413876D01*
X446244Y411410D01*
X443023Y410076D01*
X439537Y410076D01*
G37*
%LPD*%
%LPC*%
G36*
X439537Y156076D02*
X439537Y156076D01*
X436316Y157410D01*
X433850Y159876D01*
X432516Y163097D01*
X432516Y166583D01*
X433850Y169804D01*
X436316Y172270D01*
X439537Y173604D01*
X443023Y173604D01*
X446244Y172270D01*
X448710Y169804D01*
X450044Y166583D01*
X450044Y163097D01*
X448710Y159876D01*
X446244Y157410D01*
X443023Y156076D01*
X439537Y156076D01*
G37*
%LPD*%
%LPC*%
G36*
X414137Y156076D02*
X414137Y156076D01*
X410916Y157410D01*
X408450Y159876D01*
X407116Y163097D01*
X407116Y166583D01*
X408450Y169804D01*
X410916Y172270D01*
X414137Y173604D01*
X417623Y173604D01*
X420844Y172270D01*
X423310Y169804D01*
X424644Y166583D01*
X424644Y163097D01*
X423310Y159876D01*
X420844Y157410D01*
X417623Y156076D01*
X414137Y156076D01*
G37*
%LPD*%
%LPC*%
G36*
X388737Y156076D02*
X388737Y156076D01*
X385516Y157410D01*
X383050Y159876D01*
X381716Y163097D01*
X381716Y166583D01*
X383050Y169804D01*
X385516Y172270D01*
X388737Y173604D01*
X392223Y173604D01*
X395444Y172270D01*
X397910Y169804D01*
X399244Y166583D01*
X399244Y163097D01*
X397910Y159876D01*
X395444Y157410D01*
X392223Y156076D01*
X388737Y156076D01*
G37*
%LPD*%
%LPC*%
G36*
X363337Y156076D02*
X363337Y156076D01*
X360116Y157410D01*
X357650Y159876D01*
X356316Y163097D01*
X356316Y166583D01*
X357650Y169804D01*
X360116Y172270D01*
X363337Y173604D01*
X366823Y173604D01*
X370044Y172270D01*
X372510Y169804D01*
X373844Y166583D01*
X373844Y163097D01*
X372510Y159876D01*
X370044Y157410D01*
X366823Y156076D01*
X363337Y156076D01*
G37*
%LPD*%
%LPC*%
G36*
X312537Y156076D02*
X312537Y156076D01*
X309316Y157410D01*
X306850Y159876D01*
X305516Y163097D01*
X305516Y166583D01*
X306850Y169804D01*
X309316Y172270D01*
X312537Y173604D01*
X316023Y173604D01*
X319244Y172270D01*
X321710Y169804D01*
X323044Y166583D01*
X323044Y163097D01*
X321710Y159876D01*
X319244Y157410D01*
X316023Y156076D01*
X312537Y156076D01*
G37*
%LPD*%
%LPC*%
G36*
X287137Y156076D02*
X287137Y156076D01*
X283916Y157410D01*
X281450Y159876D01*
X280116Y163097D01*
X280116Y166583D01*
X281450Y169804D01*
X283916Y172270D01*
X287137Y173604D01*
X290623Y173604D01*
X293844Y172270D01*
X296310Y169804D01*
X297644Y166583D01*
X297644Y163097D01*
X296310Y159876D01*
X293844Y157410D01*
X290623Y156076D01*
X287137Y156076D01*
G37*
%LPD*%
%LPC*%
G36*
X261737Y156076D02*
X261737Y156076D01*
X258516Y157410D01*
X256050Y159876D01*
X254716Y163097D01*
X254716Y166583D01*
X256050Y169804D01*
X258516Y172270D01*
X261737Y173604D01*
X265223Y173604D01*
X268444Y172270D01*
X270910Y169804D01*
X272244Y166583D01*
X272244Y163097D01*
X270910Y159876D01*
X268444Y157410D01*
X265223Y156076D01*
X261737Y156076D01*
G37*
%LPD*%
%LPC*%
G36*
X236337Y156076D02*
X236337Y156076D01*
X233116Y157410D01*
X230650Y159876D01*
X229316Y163097D01*
X229316Y166583D01*
X230650Y169804D01*
X233116Y172270D01*
X236337Y173604D01*
X239823Y173604D01*
X243044Y172270D01*
X245510Y169804D01*
X246844Y166583D01*
X246844Y163097D01*
X245510Y159876D01*
X243044Y157410D01*
X239823Y156076D01*
X236337Y156076D01*
G37*
%LPD*%
%LPC*%
G36*
X210937Y156076D02*
X210937Y156076D01*
X207716Y157410D01*
X205250Y159876D01*
X203916Y163097D01*
X203916Y166583D01*
X205250Y169804D01*
X207716Y172270D01*
X210937Y173604D01*
X214423Y173604D01*
X217644Y172270D01*
X220110Y169804D01*
X221444Y166583D01*
X221444Y163097D01*
X220110Y159876D01*
X217644Y157410D01*
X214423Y156076D01*
X210937Y156076D01*
G37*
%LPD*%
%LPC*%
G36*
X185537Y156076D02*
X185537Y156076D01*
X182316Y157410D01*
X179850Y159876D01*
X178516Y163097D01*
X178516Y166583D01*
X179850Y169804D01*
X182316Y172270D01*
X185537Y173604D01*
X189023Y173604D01*
X192244Y172270D01*
X194710Y169804D01*
X196044Y166583D01*
X196044Y163097D01*
X194710Y159876D01*
X192244Y157410D01*
X189023Y156076D01*
X185537Y156076D01*
G37*
%LPD*%
%LPC*%
G36*
X160137Y156076D02*
X160137Y156076D01*
X156916Y157410D01*
X154450Y159876D01*
X153116Y163097D01*
X153116Y166583D01*
X154450Y169804D01*
X156916Y172270D01*
X160137Y173604D01*
X163623Y173604D01*
X166844Y172270D01*
X169310Y169804D01*
X170644Y166583D01*
X170644Y163097D01*
X169310Y159876D01*
X166844Y157410D01*
X163623Y156076D01*
X160137Y156076D01*
G37*
%LPD*%
%LPC*%
G36*
X134737Y156076D02*
X134737Y156076D01*
X131516Y157410D01*
X129050Y159876D01*
X127716Y163097D01*
X127716Y166583D01*
X129050Y169804D01*
X131516Y172270D01*
X134737Y173604D01*
X138223Y173604D01*
X141444Y172270D01*
X143910Y169804D01*
X145244Y166583D01*
X145244Y163097D01*
X143910Y159876D01*
X141444Y157410D01*
X138223Y156076D01*
X134737Y156076D01*
G37*
%LPD*%
%LPC*%
G36*
X109337Y156076D02*
X109337Y156076D01*
X106116Y157410D01*
X103650Y159876D01*
X102316Y163097D01*
X102316Y166583D01*
X103650Y169804D01*
X106116Y172270D01*
X109337Y173604D01*
X112823Y173604D01*
X116044Y172270D01*
X118510Y169804D01*
X119844Y166583D01*
X119844Y163097D01*
X118510Y159876D01*
X116044Y157410D01*
X112823Y156076D01*
X109337Y156076D01*
G37*
%LPD*%
%LPC*%
G36*
X83937Y156076D02*
X83937Y156076D01*
X80716Y157410D01*
X78250Y159876D01*
X76916Y163097D01*
X76916Y166583D01*
X78250Y169804D01*
X80716Y172270D01*
X83937Y173604D01*
X87423Y173604D01*
X90644Y172270D01*
X93110Y169804D01*
X94444Y166583D01*
X94444Y163097D01*
X93110Y159876D01*
X90644Y157410D01*
X87423Y156076D01*
X83937Y156076D01*
G37*
%LPD*%
%LPC*%
G36*
X58537Y156076D02*
X58537Y156076D01*
X55316Y157410D01*
X52850Y159876D01*
X51516Y163097D01*
X51516Y166583D01*
X52850Y169804D01*
X55316Y172270D01*
X58537Y173604D01*
X62023Y173604D01*
X65244Y172270D01*
X67710Y169804D01*
X69044Y166583D01*
X69044Y163097D01*
X67710Y159876D01*
X65244Y157410D01*
X62023Y156076D01*
X58537Y156076D01*
G37*
%LPD*%
%LPC*%
G36*
X464937Y410076D02*
X464937Y410076D01*
X461716Y411410D01*
X459250Y413876D01*
X457916Y417097D01*
X457916Y420583D01*
X459250Y423804D01*
X461716Y426270D01*
X464937Y427604D01*
X468423Y427604D01*
X471644Y426270D01*
X474110Y423804D01*
X475444Y420583D01*
X475444Y417097D01*
X474110Y413876D01*
X471644Y411410D01*
X468423Y410076D01*
X464937Y410076D01*
G37*
%LPD*%
%LPC*%
G36*
X490337Y410076D02*
X490337Y410076D01*
X487116Y411410D01*
X484650Y413876D01*
X483316Y417097D01*
X483316Y420583D01*
X484650Y423804D01*
X487116Y426270D01*
X490337Y427604D01*
X493823Y427604D01*
X497044Y426270D01*
X499510Y423804D01*
X500844Y420583D01*
X500844Y417097D01*
X499510Y413876D01*
X497044Y411410D01*
X493823Y410076D01*
X490337Y410076D01*
G37*
%LPD*%
%LPC*%
G36*
X185537Y410076D02*
X185537Y410076D01*
X182316Y411410D01*
X179850Y413876D01*
X178516Y417097D01*
X178516Y420583D01*
X179850Y423804D01*
X182316Y426270D01*
X185537Y427604D01*
X189023Y427604D01*
X192244Y426270D01*
X194710Y423804D01*
X196044Y420583D01*
X196044Y417097D01*
X194710Y413876D01*
X192244Y411410D01*
X189023Y410076D01*
X185537Y410076D01*
G37*
%LPD*%
%LPC*%
G36*
X210937Y410076D02*
X210937Y410076D01*
X207716Y411410D01*
X205250Y413876D01*
X203916Y417097D01*
X203916Y420583D01*
X205250Y423804D01*
X207716Y426270D01*
X210937Y427604D01*
X214423Y427604D01*
X217644Y426270D01*
X220110Y423804D01*
X221444Y420583D01*
X221444Y417097D01*
X220110Y413876D01*
X217644Y411410D01*
X214423Y410076D01*
X210937Y410076D01*
G37*
%LPD*%
%LPC*%
G36*
X109337Y130676D02*
X109337Y130676D01*
X106116Y132010D01*
X103650Y134476D01*
X102316Y137697D01*
X102316Y141183D01*
X103650Y144404D01*
X106116Y146870D01*
X109337Y148204D01*
X112823Y148204D01*
X116044Y146870D01*
X118510Y144404D01*
X119844Y141183D01*
X119844Y137697D01*
X118510Y134476D01*
X116044Y132010D01*
X112823Y130676D01*
X109337Y130676D01*
G37*
%LPD*%
%LPC*%
G36*
X134737Y130676D02*
X134737Y130676D01*
X131516Y132010D01*
X129050Y134476D01*
X127716Y137697D01*
X127716Y141183D01*
X129050Y144404D01*
X131516Y146870D01*
X134737Y148204D01*
X138223Y148204D01*
X141444Y146870D01*
X143910Y144404D01*
X145244Y141183D01*
X145244Y137697D01*
X143910Y134476D01*
X141444Y132010D01*
X138223Y130676D01*
X134737Y130676D01*
G37*
%LPD*%
%LPC*%
G36*
X490337Y130676D02*
X490337Y130676D01*
X487116Y132010D01*
X484650Y134476D01*
X483316Y137697D01*
X483316Y141183D01*
X484650Y144404D01*
X487116Y146870D01*
X490337Y148204D01*
X493823Y148204D01*
X497044Y146870D01*
X499510Y144404D01*
X500844Y141183D01*
X500844Y137697D01*
X499510Y134476D01*
X497044Y132010D01*
X493823Y130676D01*
X490337Y130676D01*
G37*
%LPD*%
%LPC*%
G36*
X464937Y130676D02*
X464937Y130676D01*
X461716Y132010D01*
X459250Y134476D01*
X457916Y137697D01*
X457916Y141183D01*
X459250Y144404D01*
X461716Y146870D01*
X464937Y148204D01*
X468423Y148204D01*
X471644Y146870D01*
X474110Y144404D01*
X475444Y141183D01*
X475444Y137697D01*
X474110Y134476D01*
X471644Y132010D01*
X468423Y130676D01*
X464937Y130676D01*
G37*
%LPD*%
%LPC*%
G36*
X83937Y130676D02*
X83937Y130676D01*
X80716Y132010D01*
X78250Y134476D01*
X76916Y137697D01*
X76916Y141183D01*
X78250Y144404D01*
X80716Y146870D01*
X83937Y148204D01*
X87423Y148204D01*
X90644Y146870D01*
X93110Y144404D01*
X94444Y141183D01*
X94444Y137697D01*
X93110Y134476D01*
X90644Y132010D01*
X87423Y130676D01*
X83937Y130676D01*
G37*
%LPD*%
%LPC*%
G36*
X58537Y130676D02*
X58537Y130676D01*
X55316Y132010D01*
X52850Y134476D01*
X51516Y137697D01*
X51516Y141183D01*
X52850Y144404D01*
X55316Y146870D01*
X58537Y148204D01*
X62023Y148204D01*
X65244Y146870D01*
X67710Y144404D01*
X69044Y141183D01*
X69044Y137697D01*
X67710Y134476D01*
X65244Y132010D01*
X62023Y130676D01*
X58537Y130676D01*
G37*
%LPD*%
%LPC*%
G36*
X439537Y130676D02*
X439537Y130676D01*
X436316Y132010D01*
X433850Y134476D01*
X432516Y137697D01*
X432516Y141183D01*
X433850Y144404D01*
X436316Y146870D01*
X439537Y148204D01*
X443023Y148204D01*
X446244Y146870D01*
X448710Y144404D01*
X450044Y141183D01*
X450044Y137697D01*
X448710Y134476D01*
X446244Y132010D01*
X443023Y130676D01*
X439537Y130676D01*
G37*
%LPD*%
%LPC*%
G36*
X414137Y130676D02*
X414137Y130676D01*
X410916Y132010D01*
X408450Y134476D01*
X407116Y137697D01*
X407116Y141183D01*
X408450Y144404D01*
X410916Y146870D01*
X414137Y148204D01*
X417623Y148204D01*
X420844Y146870D01*
X423310Y144404D01*
X424644Y141183D01*
X424644Y137697D01*
X423310Y134476D01*
X420844Y132010D01*
X417623Y130676D01*
X414137Y130676D01*
G37*
%LPD*%
%LPC*%
G36*
X388737Y130676D02*
X388737Y130676D01*
X385516Y132010D01*
X383050Y134476D01*
X381716Y137697D01*
X381716Y141183D01*
X383050Y144404D01*
X385516Y146870D01*
X388737Y148204D01*
X392223Y148204D01*
X395444Y146870D01*
X397910Y144404D01*
X399244Y141183D01*
X399244Y137697D01*
X397910Y134476D01*
X395444Y132010D01*
X392223Y130676D01*
X388737Y130676D01*
G37*
%LPD*%
%LPC*%
G36*
X363337Y130676D02*
X363337Y130676D01*
X360116Y132010D01*
X357650Y134476D01*
X356316Y137697D01*
X356316Y141183D01*
X357650Y144404D01*
X360116Y146870D01*
X363337Y148204D01*
X366823Y148204D01*
X370044Y146870D01*
X372510Y144404D01*
X373844Y141183D01*
X373844Y137697D01*
X372510Y134476D01*
X370044Y132010D01*
X366823Y130676D01*
X363337Y130676D01*
G37*
%LPD*%
%LPC*%
G36*
X337937Y130676D02*
X337937Y130676D01*
X334716Y132010D01*
X332250Y134476D01*
X330916Y137697D01*
X330916Y141183D01*
X332250Y144404D01*
X334716Y146870D01*
X337937Y148204D01*
X341423Y148204D01*
X344644Y146870D01*
X347110Y144404D01*
X348444Y141183D01*
X348444Y137697D01*
X347110Y134476D01*
X344644Y132010D01*
X341423Y130676D01*
X337937Y130676D01*
G37*
%LPD*%
%LPC*%
G36*
X312537Y130676D02*
X312537Y130676D01*
X309316Y132010D01*
X306850Y134476D01*
X305516Y137697D01*
X305516Y141183D01*
X306850Y144404D01*
X309316Y146870D01*
X312537Y148204D01*
X316023Y148204D01*
X319244Y146870D01*
X321710Y144404D01*
X323044Y141183D01*
X323044Y137697D01*
X321710Y134476D01*
X319244Y132010D01*
X316023Y130676D01*
X312537Y130676D01*
G37*
%LPD*%
%LPC*%
G36*
X287137Y130676D02*
X287137Y130676D01*
X283916Y132010D01*
X281450Y134476D01*
X280116Y137697D01*
X280116Y141183D01*
X281450Y144404D01*
X283916Y146870D01*
X287137Y148204D01*
X290623Y148204D01*
X293844Y146870D01*
X296310Y144404D01*
X297644Y141183D01*
X297644Y137697D01*
X296310Y134476D01*
X293844Y132010D01*
X290623Y130676D01*
X287137Y130676D01*
G37*
%LPD*%
%LPC*%
G36*
X261737Y130676D02*
X261737Y130676D01*
X258516Y132010D01*
X256050Y134476D01*
X254716Y137697D01*
X254716Y141183D01*
X256050Y144404D01*
X258516Y146870D01*
X261737Y148204D01*
X265223Y148204D01*
X268444Y146870D01*
X270910Y144404D01*
X272244Y141183D01*
X272244Y137697D01*
X270910Y134476D01*
X268444Y132010D01*
X265223Y130676D01*
X261737Y130676D01*
G37*
%LPD*%
%LPC*%
G36*
X236337Y130676D02*
X236337Y130676D01*
X233116Y132010D01*
X230650Y134476D01*
X229316Y137697D01*
X229316Y141183D01*
X230650Y144404D01*
X233116Y146870D01*
X236337Y148204D01*
X239823Y148204D01*
X243044Y146870D01*
X245510Y144404D01*
X246844Y141183D01*
X246844Y137697D01*
X245510Y134476D01*
X243044Y132010D01*
X239823Y130676D01*
X236337Y130676D01*
G37*
%LPD*%
%LPC*%
G36*
X210937Y130676D02*
X210937Y130676D01*
X207716Y132010D01*
X205250Y134476D01*
X203916Y137697D01*
X203916Y141183D01*
X205250Y144404D01*
X207716Y146870D01*
X210937Y148204D01*
X214423Y148204D01*
X217644Y146870D01*
X220110Y144404D01*
X221444Y141183D01*
X221444Y137697D01*
X220110Y134476D01*
X217644Y132010D01*
X214423Y130676D01*
X210937Y130676D01*
G37*
%LPD*%
%LPC*%
G36*
X185537Y130676D02*
X185537Y130676D01*
X182316Y132010D01*
X179850Y134476D01*
X178516Y137697D01*
X178516Y141183D01*
X179850Y144404D01*
X182316Y146870D01*
X185537Y148204D01*
X189023Y148204D01*
X192244Y146870D01*
X194710Y144404D01*
X196044Y141183D01*
X196044Y137697D01*
X194710Y134476D01*
X192244Y132010D01*
X189023Y130676D01*
X185537Y130676D01*
G37*
%LPD*%
%LPC*%
G36*
X160137Y130676D02*
X160137Y130676D01*
X156916Y132010D01*
X154450Y134476D01*
X153116Y137697D01*
X153116Y141183D01*
X154450Y144404D01*
X156916Y146870D01*
X160137Y148204D01*
X163623Y148204D01*
X166844Y146870D01*
X169310Y144404D01*
X170644Y141183D01*
X170644Y137697D01*
X169310Y134476D01*
X166844Y132010D01*
X163623Y130676D01*
X160137Y130676D01*
G37*
%LPD*%
%LPC*%
G36*
X669448Y146811D02*
X669448Y146811D01*
X667394Y147662D01*
X665822Y149234D01*
X664971Y151288D01*
X664971Y153512D01*
X665822Y155566D01*
X667394Y157138D01*
X669448Y157989D01*
X671672Y157989D01*
X673726Y157138D01*
X675298Y155566D01*
X676149Y153512D01*
X676149Y151288D01*
X675298Y149234D01*
X673726Y147662D01*
X671672Y146811D01*
X669448Y146811D01*
G37*
%LPD*%
%LPC*%
G36*
X391318Y443991D02*
X391318Y443991D01*
X389264Y444842D01*
X387692Y446414D01*
X386841Y448468D01*
X386841Y450692D01*
X387692Y452746D01*
X389264Y454318D01*
X391318Y455169D01*
X393542Y455169D01*
X395596Y454318D01*
X397168Y452746D01*
X398019Y450692D01*
X398019Y448468D01*
X397168Y446414D01*
X395596Y444842D01*
X393542Y443991D01*
X391318Y443991D01*
G37*
%LPD*%
%LPC*%
G36*
X430688Y441451D02*
X430688Y441451D01*
X428634Y442302D01*
X427062Y443874D01*
X426211Y445928D01*
X426211Y448152D01*
X427062Y450206D01*
X428634Y451778D01*
X430688Y452629D01*
X432912Y452629D01*
X434966Y451778D01*
X436538Y450206D01*
X437389Y448152D01*
X437389Y445928D01*
X436538Y443874D01*
X434966Y442302D01*
X432912Y441451D01*
X430688Y441451D01*
G37*
%LPD*%
%LPC*%
G36*
X494188Y440181D02*
X494188Y440181D01*
X492134Y441032D01*
X490562Y442604D01*
X489711Y444658D01*
X489711Y446882D01*
X490562Y448936D01*
X492134Y450508D01*
X494188Y451359D01*
X496412Y451359D01*
X498466Y450508D01*
X500038Y448936D01*
X500889Y446882D01*
X500889Y444658D01*
X500038Y442604D01*
X498466Y441032D01*
X496412Y440181D01*
X494188Y440181D01*
G37*
%LPD*%
%LPC*%
G36*
X546258Y463041D02*
X546258Y463041D01*
X544204Y463892D01*
X542632Y465464D01*
X541781Y467518D01*
X541781Y469742D01*
X542632Y471796D01*
X544204Y473368D01*
X546258Y474219D01*
X548482Y474219D01*
X550536Y473368D01*
X552108Y471796D01*
X552959Y469742D01*
X552959Y467518D01*
X552108Y465464D01*
X550536Y463892D01*
X548482Y463041D01*
X546258Y463041D01*
G37*
%LPD*%
%LPC*%
G36*
X270763Y446023D02*
X270763Y446023D01*
X270763Y454032D01*
X271500Y453915D01*
X272945Y453446D01*
X274299Y452756D01*
X275528Y451863D01*
X276603Y450788D01*
X277496Y449559D01*
X278186Y448205D01*
X278655Y446760D01*
X278772Y446023D01*
X270763Y446023D01*
G37*
%LPD*%
%LPC*%
G36*
X259708Y446023D02*
X259708Y446023D01*
X259825Y446760D01*
X260294Y448205D01*
X260984Y449559D01*
X261877Y450788D01*
X262952Y451863D01*
X264181Y452756D01*
X265535Y453446D01*
X266980Y453915D01*
X267717Y454032D01*
X267717Y446023D01*
X259708Y446023D01*
G37*
%LPD*%
%LPC*%
G36*
X270763Y442977D02*
X270763Y442977D01*
X278772Y442977D01*
X278655Y442240D01*
X278186Y440795D01*
X277496Y439441D01*
X276603Y438212D01*
X275528Y437137D01*
X274299Y436244D01*
X272945Y435554D01*
X271500Y435085D01*
X270763Y434968D01*
X270763Y442977D01*
G37*
%LPD*%
%LPC*%
G36*
X266980Y435085D02*
X266980Y435085D01*
X265535Y435554D01*
X264181Y436244D01*
X262952Y437137D01*
X261877Y438212D01*
X260984Y439441D01*
X260294Y440795D01*
X259825Y442240D01*
X259708Y442977D01*
X267717Y442977D01*
X267717Y434968D01*
X266980Y435085D01*
G37*
%LPD*%
%LPC*%
G36*
X341203Y166363D02*
X341203Y166363D01*
X341203Y173472D01*
X342236Y173267D01*
X343831Y172606D01*
X345267Y171647D01*
X346487Y170427D01*
X347446Y168991D01*
X348107Y167396D01*
X348312Y166363D01*
X341203Y166363D01*
G37*
%LPD*%
%LPC*%
G36*
X214203Y394963D02*
X214203Y394963D01*
X214203Y402072D01*
X215236Y401867D01*
X216831Y401206D01*
X218267Y400247D01*
X219487Y399027D01*
X220446Y397591D01*
X221107Y395996D01*
X221312Y394963D01*
X214203Y394963D01*
G37*
%LPD*%
%LPC*%
G36*
X204048Y394963D02*
X204048Y394963D01*
X204253Y395996D01*
X204914Y397591D01*
X205873Y399027D01*
X207093Y400247D01*
X208529Y401206D01*
X210124Y401867D01*
X211157Y402072D01*
X211157Y394963D01*
X204048Y394963D01*
G37*
%LPD*%
%LPC*%
G36*
X331048Y166363D02*
X331048Y166363D01*
X331253Y167396D01*
X331914Y168991D01*
X332873Y170427D01*
X334093Y171647D01*
X335529Y172606D01*
X337124Y173267D01*
X338157Y173472D01*
X338157Y166363D01*
X331048Y166363D01*
G37*
%LPD*%
%LPC*%
G36*
X214203Y391917D02*
X214203Y391917D01*
X221312Y391917D01*
X221107Y390884D01*
X220446Y389289D01*
X219487Y387853D01*
X218267Y386633D01*
X216831Y385674D01*
X215236Y385013D01*
X214203Y384808D01*
X214203Y391917D01*
G37*
%LPD*%
%LPC*%
G36*
X341203Y163317D02*
X341203Y163317D01*
X348312Y163317D01*
X348107Y162284D01*
X347446Y160689D01*
X346487Y159253D01*
X345267Y158033D01*
X343831Y157074D01*
X342236Y156413D01*
X341203Y156208D01*
X341203Y163317D01*
G37*
%LPD*%
%LPC*%
G36*
X337124Y156413D02*
X337124Y156413D01*
X335529Y157074D01*
X334093Y158033D01*
X332873Y159253D01*
X331914Y160689D01*
X331253Y162284D01*
X331048Y163317D01*
X338157Y163317D01*
X338157Y156208D01*
X337124Y156413D01*
G37*
%LPD*%
%LPC*%
G36*
X210124Y385013D02*
X210124Y385013D01*
X208529Y385674D01*
X207093Y386633D01*
X205873Y387853D01*
X204914Y389289D01*
X204253Y390884D01*
X204048Y391917D01*
X211157Y391917D01*
X211157Y384808D01*
X210124Y385013D01*
G37*
%LPD*%
%LPC*%
G36*
X269239Y444499D02*
X269239Y444499D01*
X269239Y444501D01*
X269241Y444501D01*
X269241Y444499D01*
X269239Y444499D01*
G37*
%LPD*%
%LPC*%
G36*
X339679Y164839D02*
X339679Y164839D01*
X339679Y164841D01*
X339681Y164841D01*
X339681Y164839D01*
X339679Y164839D01*
G37*
%LPD*%
%LPC*%
G36*
X212679Y393439D02*
X212679Y393439D01*
X212679Y393441D01*
X212681Y393441D01*
X212681Y393439D01*
X212679Y393439D01*
G37*
%LPD*%
D10*
X345440Y444500D03*
X320040Y444500D03*
X294640Y444500D03*
X269240Y444500D03*
D11*
X492080Y139440D03*
X492080Y164840D03*
X466680Y139440D03*
X466680Y164840D03*
X441280Y139440D03*
X441280Y164840D03*
X415880Y139440D03*
X415880Y164840D03*
X390480Y139440D03*
X390480Y164840D03*
X365080Y139440D03*
X365080Y164840D03*
X339680Y139440D03*
X339680Y164840D03*
X314280Y139440D03*
X314280Y164840D03*
X288880Y139440D03*
X288880Y164840D03*
X263480Y139440D03*
X263480Y164840D03*
X238080Y139440D03*
X238080Y164840D03*
X212680Y139440D03*
X212680Y164840D03*
X187280Y139440D03*
X187280Y164840D03*
X161880Y139440D03*
X161880Y164840D03*
X136480Y139440D03*
X136480Y164840D03*
X111080Y139440D03*
X111080Y164840D03*
X85680Y139440D03*
X85680Y164840D03*
X60280Y139440D03*
X60280Y164840D03*
X492080Y393440D03*
X492080Y418840D03*
X466680Y393440D03*
X466680Y418840D03*
X441280Y393440D03*
X441280Y418840D03*
X415880Y393440D03*
X415880Y418840D03*
X390480Y393440D03*
X390480Y418840D03*
X365080Y393440D03*
X365080Y418840D03*
X339680Y393440D03*
X339680Y418840D03*
X314280Y393440D03*
X314280Y418840D03*
X288880Y393440D03*
X288880Y418840D03*
X263480Y393440D03*
X263480Y418840D03*
X238080Y393440D03*
X238080Y418840D03*
X212680Y393440D03*
X212680Y418840D03*
X187280Y393440D03*
X187280Y418840D03*
X161880Y393440D03*
X161880Y418840D03*
X136480Y393440D03*
X136480Y418840D03*
X111080Y393440D03*
X111080Y418840D03*
X85680Y393440D03*
X85680Y418840D03*
X60280Y393440D03*
X60280Y418840D03*
D12*
X532400Y91040D03*
X532400Y41040D03*
X407400Y41040D03*
X407400Y91040D03*
X686070Y101200D03*
X686070Y51200D03*
X561070Y51200D03*
X561070Y101200D03*
X727980Y256140D03*
X727980Y206140D03*
X602980Y206140D03*
X602980Y256140D03*
X727980Y406000D03*
X727980Y356000D03*
X602980Y356000D03*
X602980Y406000D03*
X369840Y88500D03*
X369840Y38500D03*
X244840Y38500D03*
X244840Y88500D03*
X209820Y88500D03*
X209820Y38500D03*
X84820Y38500D03*
X84820Y88500D03*
D13*
X30480Y477520D03*
X725170Y477520D03*
X730250Y30480D03*
X30480Y30480D03*
D14*
X547370Y468630D03*
X495300Y445770D03*
X431800Y447040D03*
X392430Y449580D03*
X670560Y152400D03*
X393700Y337820D03*
X355600Y337820D03*
X60960Y114300D03*
X227330Y107950D03*
X387350Y105410D03*
X551180Y180340D03*
X576580Y233680D03*
X576580Y378460D03*
M02*
