G04 EAGLE Gerber RS-274X export*
G75*
%MOMM*%
%FSLAX34Y34*%
%LPD*%
%INBottom Copper*%
%IPPOS*%
%AMOC8*
5,1,8,0,0,1.08239X$1,22.5*%
G01*
%ADD10C,1.778000*%
%ADD11R,1.524000X1.524000*%
%ADD12P,1.649562X8X202.500000*%
%ADD13C,1.960000*%
%ADD14C,4.445000*%
%ADD15C,1.016000*%
%ADD16C,0.609600*%
%ADD17C,0.254000*%


D10*
X345440Y444500D03*
X320040Y444500D03*
X294640Y444500D03*
X269240Y444500D03*
D11*
X492080Y139440D03*
D12*
X492080Y164840D03*
X466680Y139440D03*
X466680Y164840D03*
X441280Y139440D03*
X441280Y164840D03*
X415880Y139440D03*
X415880Y164840D03*
X390480Y139440D03*
X390480Y164840D03*
X365080Y139440D03*
X365080Y164840D03*
X339680Y139440D03*
X339680Y164840D03*
X314280Y139440D03*
X314280Y164840D03*
X288880Y139440D03*
X288880Y164840D03*
X263480Y139440D03*
X263480Y164840D03*
X238080Y139440D03*
X238080Y164840D03*
X212680Y139440D03*
X212680Y164840D03*
X187280Y139440D03*
X187280Y164840D03*
X161880Y139440D03*
X161880Y164840D03*
X136480Y139440D03*
X136480Y164840D03*
X111080Y139440D03*
X111080Y164840D03*
X85680Y139440D03*
X85680Y164840D03*
X60280Y139440D03*
X60280Y164840D03*
D11*
X492080Y393440D03*
D12*
X492080Y418840D03*
X466680Y393440D03*
X466680Y418840D03*
X441280Y393440D03*
X441280Y418840D03*
X415880Y393440D03*
X415880Y418840D03*
X390480Y393440D03*
X390480Y418840D03*
X365080Y393440D03*
X365080Y418840D03*
X339680Y393440D03*
X339680Y418840D03*
X314280Y393440D03*
X314280Y418840D03*
X288880Y393440D03*
X288880Y418840D03*
X263480Y393440D03*
X263480Y418840D03*
X238080Y393440D03*
X238080Y418840D03*
X212680Y393440D03*
X212680Y418840D03*
X187280Y393440D03*
X187280Y418840D03*
X161880Y393440D03*
X161880Y418840D03*
X136480Y393440D03*
X136480Y418840D03*
X111080Y393440D03*
X111080Y418840D03*
X85680Y393440D03*
X85680Y418840D03*
X60280Y393440D03*
X60280Y418840D03*
D13*
X532400Y91040D03*
X532400Y41040D03*
X407400Y41040D03*
X407400Y91040D03*
X686070Y101200D03*
X686070Y51200D03*
X561070Y51200D03*
X561070Y101200D03*
X727980Y256140D03*
X727980Y206140D03*
X602980Y206140D03*
X602980Y256140D03*
X727980Y406000D03*
X727980Y356000D03*
X602980Y356000D03*
X602980Y406000D03*
X369840Y88500D03*
X369840Y38500D03*
X244840Y38500D03*
X244840Y88500D03*
X209820Y88500D03*
X209820Y38500D03*
X84820Y38500D03*
X84820Y88500D03*
D14*
X30480Y477520D03*
X725170Y477520D03*
X730250Y30480D03*
X30480Y30480D03*
D15*
X26670Y431800D03*
X25400Y88900D03*
X736600Y88900D03*
D16*
X547370Y468630D03*
X495300Y445770D03*
X431800Y447040D03*
X392430Y449580D03*
X670560Y152400D03*
X393700Y337820D03*
X355600Y337820D03*
X60960Y114300D03*
X227330Y107950D03*
X387350Y105410D03*
X551180Y180340D03*
X576580Y233680D03*
X576580Y378460D03*
D17*
X212680Y266440D02*
X212680Y164840D01*
X212680Y266440D02*
X339680Y393440D01*
M02*
