G04 EAGLE Gerber RS-274X export*
G75*
%MOMM*%
%FSLAX34Y34*%
%LPD*%
%INSoldermask Top*%
%IPPOS*%
%AMOC8*
5,1,8,0,0,1.08239X$1,22.5*%
G01*
%ADD10C,2.152400*%
%ADD11C,1.930400*%
%ADD12R,0.952400X0.952400*%
%ADD13R,1.676400X1.676400*%
%ADD14P,1.814519X8X202.500000*%
%ADD15R,1.183641X1.102359*%
%ADD16C,2.112400*%
%ADD17C,4.597400*%
%ADD18C,0.609600*%
%ADD19C,1.168400*%
%ADD20R,1.295400X1.422400*%


D10*
X86360Y215900D03*
X523240Y215900D03*
X86360Y444500D03*
X523240Y444500D03*
D11*
X345440Y444500D03*
X320040Y444500D03*
X294640Y444500D03*
X269240Y444500D03*
D12*
X393700Y487560D03*
X393700Y472560D03*
X431800Y487560D03*
X431800Y472560D03*
X495300Y487560D03*
X495300Y472560D03*
X533400Y487560D03*
X533400Y472560D03*
D13*
X492080Y139440D03*
D14*
X492080Y164840D03*
X466680Y139440D03*
X466680Y164840D03*
X441280Y139440D03*
X441280Y164840D03*
X415880Y139440D03*
X415880Y164840D03*
X390480Y139440D03*
X390480Y164840D03*
X365080Y139440D03*
X365080Y164840D03*
X339680Y139440D03*
X339680Y164840D03*
X314280Y139440D03*
X314280Y164840D03*
X288880Y139440D03*
X288880Y164840D03*
X263480Y139440D03*
X263480Y164840D03*
X238080Y139440D03*
X238080Y164840D03*
X212680Y139440D03*
X212680Y164840D03*
X187280Y139440D03*
X187280Y164840D03*
X161880Y139440D03*
X161880Y164840D03*
X136480Y139440D03*
X136480Y164840D03*
X111080Y139440D03*
X111080Y164840D03*
X85680Y139440D03*
X85680Y164840D03*
X60280Y139440D03*
X60280Y164840D03*
D13*
X492080Y393440D03*
D14*
X492080Y418840D03*
X466680Y393440D03*
X466680Y418840D03*
X441280Y393440D03*
X441280Y418840D03*
X415880Y393440D03*
X415880Y418840D03*
X390480Y393440D03*
X390480Y418840D03*
X365080Y393440D03*
X365080Y418840D03*
X339680Y393440D03*
X339680Y418840D03*
X314280Y393440D03*
X314280Y418840D03*
X288880Y393440D03*
X288880Y418840D03*
X263480Y393440D03*
X263480Y418840D03*
X238080Y393440D03*
X238080Y418840D03*
X212680Y393440D03*
X212680Y418840D03*
X187280Y393440D03*
X187280Y418840D03*
X161880Y393440D03*
X161880Y418840D03*
X136480Y393440D03*
X136480Y418840D03*
X111080Y393440D03*
X111080Y418840D03*
X85680Y393440D03*
X85680Y418840D03*
X60280Y393440D03*
X60280Y418840D03*
D15*
X393700Y366141D03*
X393700Y350139D03*
X355600Y366141D03*
X355600Y350139D03*
D16*
X532400Y91040D03*
X532400Y41040D03*
X407400Y41040D03*
X407400Y91040D03*
D15*
X393700Y55499D03*
X393700Y71501D03*
D16*
X686070Y101200D03*
X686070Y51200D03*
X561070Y51200D03*
X561070Y101200D03*
D15*
X551180Y152019D03*
X551180Y168021D03*
D16*
X727980Y256140D03*
X727980Y206140D03*
X602980Y206140D03*
X602980Y256140D03*
D15*
X576580Y205359D03*
X576580Y221361D03*
D16*
X727980Y406000D03*
X727980Y356000D03*
X602980Y356000D03*
X602980Y406000D03*
D15*
X576580Y350139D03*
X576580Y366141D03*
D16*
X369840Y88500D03*
X369840Y38500D03*
X244840Y38500D03*
X244840Y88500D03*
D15*
X228600Y55499D03*
X228600Y71501D03*
D16*
X209820Y88500D03*
X209820Y38500D03*
X84820Y38500D03*
X84820Y88500D03*
D15*
X60960Y83439D03*
X60960Y99441D03*
D17*
X30480Y477520D03*
X725170Y477520D03*
X730250Y30480D03*
X30480Y30480D03*
D18*
X728980Y88900D02*
X728982Y89087D01*
X728989Y89274D01*
X729001Y89461D01*
X729017Y89647D01*
X729037Y89833D01*
X729062Y90018D01*
X729092Y90203D01*
X729126Y90387D01*
X729165Y90570D01*
X729208Y90752D01*
X729256Y90932D01*
X729308Y91112D01*
X729365Y91290D01*
X729425Y91467D01*
X729491Y91642D01*
X729560Y91816D01*
X729634Y91988D01*
X729712Y92158D01*
X729794Y92326D01*
X729880Y92492D01*
X729970Y92656D01*
X730064Y92817D01*
X730162Y92977D01*
X730264Y93133D01*
X730370Y93288D01*
X730480Y93439D01*
X730593Y93588D01*
X730710Y93734D01*
X730830Y93877D01*
X730954Y94017D01*
X731081Y94154D01*
X731212Y94288D01*
X731346Y94419D01*
X731483Y94546D01*
X731623Y94670D01*
X731766Y94790D01*
X731912Y94907D01*
X732061Y95020D01*
X732212Y95130D01*
X732367Y95236D01*
X732523Y95338D01*
X732683Y95436D01*
X732844Y95530D01*
X733008Y95620D01*
X733174Y95706D01*
X733342Y95788D01*
X733512Y95866D01*
X733684Y95940D01*
X733858Y96009D01*
X734033Y96075D01*
X734210Y96135D01*
X734388Y96192D01*
X734568Y96244D01*
X734748Y96292D01*
X734930Y96335D01*
X735113Y96374D01*
X735297Y96408D01*
X735482Y96438D01*
X735667Y96463D01*
X735853Y96483D01*
X736039Y96499D01*
X736226Y96511D01*
X736413Y96518D01*
X736600Y96520D01*
X736787Y96518D01*
X736974Y96511D01*
X737161Y96499D01*
X737347Y96483D01*
X737533Y96463D01*
X737718Y96438D01*
X737903Y96408D01*
X738087Y96374D01*
X738270Y96335D01*
X738452Y96292D01*
X738632Y96244D01*
X738812Y96192D01*
X738990Y96135D01*
X739167Y96075D01*
X739342Y96009D01*
X739516Y95940D01*
X739688Y95866D01*
X739858Y95788D01*
X740026Y95706D01*
X740192Y95620D01*
X740356Y95530D01*
X740517Y95436D01*
X740677Y95338D01*
X740833Y95236D01*
X740988Y95130D01*
X741139Y95020D01*
X741288Y94907D01*
X741434Y94790D01*
X741577Y94670D01*
X741717Y94546D01*
X741854Y94419D01*
X741988Y94288D01*
X742119Y94154D01*
X742246Y94017D01*
X742370Y93877D01*
X742490Y93734D01*
X742607Y93588D01*
X742720Y93439D01*
X742830Y93288D01*
X742936Y93133D01*
X743038Y92977D01*
X743136Y92817D01*
X743230Y92656D01*
X743320Y92492D01*
X743406Y92326D01*
X743488Y92158D01*
X743566Y91988D01*
X743640Y91816D01*
X743709Y91642D01*
X743775Y91467D01*
X743835Y91290D01*
X743892Y91112D01*
X743944Y90932D01*
X743992Y90752D01*
X744035Y90570D01*
X744074Y90387D01*
X744108Y90203D01*
X744138Y90018D01*
X744163Y89833D01*
X744183Y89647D01*
X744199Y89461D01*
X744211Y89274D01*
X744218Y89087D01*
X744220Y88900D01*
X744218Y88713D01*
X744211Y88526D01*
X744199Y88339D01*
X744183Y88153D01*
X744163Y87967D01*
X744138Y87782D01*
X744108Y87597D01*
X744074Y87413D01*
X744035Y87230D01*
X743992Y87048D01*
X743944Y86868D01*
X743892Y86688D01*
X743835Y86510D01*
X743775Y86333D01*
X743709Y86158D01*
X743640Y85984D01*
X743566Y85812D01*
X743488Y85642D01*
X743406Y85474D01*
X743320Y85308D01*
X743230Y85144D01*
X743136Y84983D01*
X743038Y84823D01*
X742936Y84667D01*
X742830Y84512D01*
X742720Y84361D01*
X742607Y84212D01*
X742490Y84066D01*
X742370Y83923D01*
X742246Y83783D01*
X742119Y83646D01*
X741988Y83512D01*
X741854Y83381D01*
X741717Y83254D01*
X741577Y83130D01*
X741434Y83010D01*
X741288Y82893D01*
X741139Y82780D01*
X740988Y82670D01*
X740833Y82564D01*
X740677Y82462D01*
X740517Y82364D01*
X740356Y82270D01*
X740192Y82180D01*
X740026Y82094D01*
X739858Y82012D01*
X739688Y81934D01*
X739516Y81860D01*
X739342Y81791D01*
X739167Y81725D01*
X738990Y81665D01*
X738812Y81608D01*
X738632Y81556D01*
X738452Y81508D01*
X738270Y81465D01*
X738087Y81426D01*
X737903Y81392D01*
X737718Y81362D01*
X737533Y81337D01*
X737347Y81317D01*
X737161Y81301D01*
X736974Y81289D01*
X736787Y81282D01*
X736600Y81280D01*
X736413Y81282D01*
X736226Y81289D01*
X736039Y81301D01*
X735853Y81317D01*
X735667Y81337D01*
X735482Y81362D01*
X735297Y81392D01*
X735113Y81426D01*
X734930Y81465D01*
X734748Y81508D01*
X734568Y81556D01*
X734388Y81608D01*
X734210Y81665D01*
X734033Y81725D01*
X733858Y81791D01*
X733684Y81860D01*
X733512Y81934D01*
X733342Y82012D01*
X733174Y82094D01*
X733008Y82180D01*
X732844Y82270D01*
X732683Y82364D01*
X732523Y82462D01*
X732367Y82564D01*
X732212Y82670D01*
X732061Y82780D01*
X731912Y82893D01*
X731766Y83010D01*
X731623Y83130D01*
X731483Y83254D01*
X731346Y83381D01*
X731212Y83512D01*
X731081Y83646D01*
X730954Y83783D01*
X730830Y83923D01*
X730710Y84066D01*
X730593Y84212D01*
X730480Y84361D01*
X730370Y84512D01*
X730264Y84667D01*
X730162Y84823D01*
X730064Y84983D01*
X729970Y85144D01*
X729880Y85308D01*
X729794Y85474D01*
X729712Y85642D01*
X729634Y85812D01*
X729560Y85984D01*
X729491Y86158D01*
X729425Y86333D01*
X729365Y86510D01*
X729308Y86688D01*
X729256Y86868D01*
X729208Y87048D01*
X729165Y87230D01*
X729126Y87413D01*
X729092Y87597D01*
X729062Y87782D01*
X729037Y87967D01*
X729017Y88153D01*
X729001Y88339D01*
X728989Y88526D01*
X728982Y88713D01*
X728980Y88900D01*
D19*
X736600Y88900D03*
D18*
X19050Y431800D02*
X19052Y431987D01*
X19059Y432174D01*
X19071Y432361D01*
X19087Y432547D01*
X19107Y432733D01*
X19132Y432918D01*
X19162Y433103D01*
X19196Y433287D01*
X19235Y433470D01*
X19278Y433652D01*
X19326Y433832D01*
X19378Y434012D01*
X19435Y434190D01*
X19495Y434367D01*
X19561Y434542D01*
X19630Y434716D01*
X19704Y434888D01*
X19782Y435058D01*
X19864Y435226D01*
X19950Y435392D01*
X20040Y435556D01*
X20134Y435717D01*
X20232Y435877D01*
X20334Y436033D01*
X20440Y436188D01*
X20550Y436339D01*
X20663Y436488D01*
X20780Y436634D01*
X20900Y436777D01*
X21024Y436917D01*
X21151Y437054D01*
X21282Y437188D01*
X21416Y437319D01*
X21553Y437446D01*
X21693Y437570D01*
X21836Y437690D01*
X21982Y437807D01*
X22131Y437920D01*
X22282Y438030D01*
X22437Y438136D01*
X22593Y438238D01*
X22753Y438336D01*
X22914Y438430D01*
X23078Y438520D01*
X23244Y438606D01*
X23412Y438688D01*
X23582Y438766D01*
X23754Y438840D01*
X23928Y438909D01*
X24103Y438975D01*
X24280Y439035D01*
X24458Y439092D01*
X24638Y439144D01*
X24818Y439192D01*
X25000Y439235D01*
X25183Y439274D01*
X25367Y439308D01*
X25552Y439338D01*
X25737Y439363D01*
X25923Y439383D01*
X26109Y439399D01*
X26296Y439411D01*
X26483Y439418D01*
X26670Y439420D01*
X26857Y439418D01*
X27044Y439411D01*
X27231Y439399D01*
X27417Y439383D01*
X27603Y439363D01*
X27788Y439338D01*
X27973Y439308D01*
X28157Y439274D01*
X28340Y439235D01*
X28522Y439192D01*
X28702Y439144D01*
X28882Y439092D01*
X29060Y439035D01*
X29237Y438975D01*
X29412Y438909D01*
X29586Y438840D01*
X29758Y438766D01*
X29928Y438688D01*
X30096Y438606D01*
X30262Y438520D01*
X30426Y438430D01*
X30587Y438336D01*
X30747Y438238D01*
X30903Y438136D01*
X31058Y438030D01*
X31209Y437920D01*
X31358Y437807D01*
X31504Y437690D01*
X31647Y437570D01*
X31787Y437446D01*
X31924Y437319D01*
X32058Y437188D01*
X32189Y437054D01*
X32316Y436917D01*
X32440Y436777D01*
X32560Y436634D01*
X32677Y436488D01*
X32790Y436339D01*
X32900Y436188D01*
X33006Y436033D01*
X33108Y435877D01*
X33206Y435717D01*
X33300Y435556D01*
X33390Y435392D01*
X33476Y435226D01*
X33558Y435058D01*
X33636Y434888D01*
X33710Y434716D01*
X33779Y434542D01*
X33845Y434367D01*
X33905Y434190D01*
X33962Y434012D01*
X34014Y433832D01*
X34062Y433652D01*
X34105Y433470D01*
X34144Y433287D01*
X34178Y433103D01*
X34208Y432918D01*
X34233Y432733D01*
X34253Y432547D01*
X34269Y432361D01*
X34281Y432174D01*
X34288Y431987D01*
X34290Y431800D01*
X34288Y431613D01*
X34281Y431426D01*
X34269Y431239D01*
X34253Y431053D01*
X34233Y430867D01*
X34208Y430682D01*
X34178Y430497D01*
X34144Y430313D01*
X34105Y430130D01*
X34062Y429948D01*
X34014Y429768D01*
X33962Y429588D01*
X33905Y429410D01*
X33845Y429233D01*
X33779Y429058D01*
X33710Y428884D01*
X33636Y428712D01*
X33558Y428542D01*
X33476Y428374D01*
X33390Y428208D01*
X33300Y428044D01*
X33206Y427883D01*
X33108Y427723D01*
X33006Y427567D01*
X32900Y427412D01*
X32790Y427261D01*
X32677Y427112D01*
X32560Y426966D01*
X32440Y426823D01*
X32316Y426683D01*
X32189Y426546D01*
X32058Y426412D01*
X31924Y426281D01*
X31787Y426154D01*
X31647Y426030D01*
X31504Y425910D01*
X31358Y425793D01*
X31209Y425680D01*
X31058Y425570D01*
X30903Y425464D01*
X30747Y425362D01*
X30587Y425264D01*
X30426Y425170D01*
X30262Y425080D01*
X30096Y424994D01*
X29928Y424912D01*
X29758Y424834D01*
X29586Y424760D01*
X29412Y424691D01*
X29237Y424625D01*
X29060Y424565D01*
X28882Y424508D01*
X28702Y424456D01*
X28522Y424408D01*
X28340Y424365D01*
X28157Y424326D01*
X27973Y424292D01*
X27788Y424262D01*
X27603Y424237D01*
X27417Y424217D01*
X27231Y424201D01*
X27044Y424189D01*
X26857Y424182D01*
X26670Y424180D01*
X26483Y424182D01*
X26296Y424189D01*
X26109Y424201D01*
X25923Y424217D01*
X25737Y424237D01*
X25552Y424262D01*
X25367Y424292D01*
X25183Y424326D01*
X25000Y424365D01*
X24818Y424408D01*
X24638Y424456D01*
X24458Y424508D01*
X24280Y424565D01*
X24103Y424625D01*
X23928Y424691D01*
X23754Y424760D01*
X23582Y424834D01*
X23412Y424912D01*
X23244Y424994D01*
X23078Y425080D01*
X22914Y425170D01*
X22753Y425264D01*
X22593Y425362D01*
X22437Y425464D01*
X22282Y425570D01*
X22131Y425680D01*
X21982Y425793D01*
X21836Y425910D01*
X21693Y426030D01*
X21553Y426154D01*
X21416Y426281D01*
X21282Y426412D01*
X21151Y426546D01*
X21024Y426683D01*
X20900Y426823D01*
X20780Y426966D01*
X20663Y427112D01*
X20550Y427261D01*
X20440Y427412D01*
X20334Y427567D01*
X20232Y427723D01*
X20134Y427883D01*
X20040Y428044D01*
X19950Y428208D01*
X19864Y428374D01*
X19782Y428542D01*
X19704Y428712D01*
X19630Y428884D01*
X19561Y429058D01*
X19495Y429233D01*
X19435Y429410D01*
X19378Y429588D01*
X19326Y429768D01*
X19278Y429948D01*
X19235Y430130D01*
X19196Y430313D01*
X19162Y430497D01*
X19132Y430682D01*
X19107Y430867D01*
X19087Y431053D01*
X19071Y431239D01*
X19059Y431426D01*
X19052Y431613D01*
X19050Y431800D01*
D19*
X26670Y431800D03*
D18*
X17780Y88900D02*
X17782Y89087D01*
X17789Y89274D01*
X17801Y89461D01*
X17817Y89647D01*
X17837Y89833D01*
X17862Y90018D01*
X17892Y90203D01*
X17926Y90387D01*
X17965Y90570D01*
X18008Y90752D01*
X18056Y90932D01*
X18108Y91112D01*
X18165Y91290D01*
X18225Y91467D01*
X18291Y91642D01*
X18360Y91816D01*
X18434Y91988D01*
X18512Y92158D01*
X18594Y92326D01*
X18680Y92492D01*
X18770Y92656D01*
X18864Y92817D01*
X18962Y92977D01*
X19064Y93133D01*
X19170Y93288D01*
X19280Y93439D01*
X19393Y93588D01*
X19510Y93734D01*
X19630Y93877D01*
X19754Y94017D01*
X19881Y94154D01*
X20012Y94288D01*
X20146Y94419D01*
X20283Y94546D01*
X20423Y94670D01*
X20566Y94790D01*
X20712Y94907D01*
X20861Y95020D01*
X21012Y95130D01*
X21167Y95236D01*
X21323Y95338D01*
X21483Y95436D01*
X21644Y95530D01*
X21808Y95620D01*
X21974Y95706D01*
X22142Y95788D01*
X22312Y95866D01*
X22484Y95940D01*
X22658Y96009D01*
X22833Y96075D01*
X23010Y96135D01*
X23188Y96192D01*
X23368Y96244D01*
X23548Y96292D01*
X23730Y96335D01*
X23913Y96374D01*
X24097Y96408D01*
X24282Y96438D01*
X24467Y96463D01*
X24653Y96483D01*
X24839Y96499D01*
X25026Y96511D01*
X25213Y96518D01*
X25400Y96520D01*
X25587Y96518D01*
X25774Y96511D01*
X25961Y96499D01*
X26147Y96483D01*
X26333Y96463D01*
X26518Y96438D01*
X26703Y96408D01*
X26887Y96374D01*
X27070Y96335D01*
X27252Y96292D01*
X27432Y96244D01*
X27612Y96192D01*
X27790Y96135D01*
X27967Y96075D01*
X28142Y96009D01*
X28316Y95940D01*
X28488Y95866D01*
X28658Y95788D01*
X28826Y95706D01*
X28992Y95620D01*
X29156Y95530D01*
X29317Y95436D01*
X29477Y95338D01*
X29633Y95236D01*
X29788Y95130D01*
X29939Y95020D01*
X30088Y94907D01*
X30234Y94790D01*
X30377Y94670D01*
X30517Y94546D01*
X30654Y94419D01*
X30788Y94288D01*
X30919Y94154D01*
X31046Y94017D01*
X31170Y93877D01*
X31290Y93734D01*
X31407Y93588D01*
X31520Y93439D01*
X31630Y93288D01*
X31736Y93133D01*
X31838Y92977D01*
X31936Y92817D01*
X32030Y92656D01*
X32120Y92492D01*
X32206Y92326D01*
X32288Y92158D01*
X32366Y91988D01*
X32440Y91816D01*
X32509Y91642D01*
X32575Y91467D01*
X32635Y91290D01*
X32692Y91112D01*
X32744Y90932D01*
X32792Y90752D01*
X32835Y90570D01*
X32874Y90387D01*
X32908Y90203D01*
X32938Y90018D01*
X32963Y89833D01*
X32983Y89647D01*
X32999Y89461D01*
X33011Y89274D01*
X33018Y89087D01*
X33020Y88900D01*
X33018Y88713D01*
X33011Y88526D01*
X32999Y88339D01*
X32983Y88153D01*
X32963Y87967D01*
X32938Y87782D01*
X32908Y87597D01*
X32874Y87413D01*
X32835Y87230D01*
X32792Y87048D01*
X32744Y86868D01*
X32692Y86688D01*
X32635Y86510D01*
X32575Y86333D01*
X32509Y86158D01*
X32440Y85984D01*
X32366Y85812D01*
X32288Y85642D01*
X32206Y85474D01*
X32120Y85308D01*
X32030Y85144D01*
X31936Y84983D01*
X31838Y84823D01*
X31736Y84667D01*
X31630Y84512D01*
X31520Y84361D01*
X31407Y84212D01*
X31290Y84066D01*
X31170Y83923D01*
X31046Y83783D01*
X30919Y83646D01*
X30788Y83512D01*
X30654Y83381D01*
X30517Y83254D01*
X30377Y83130D01*
X30234Y83010D01*
X30088Y82893D01*
X29939Y82780D01*
X29788Y82670D01*
X29633Y82564D01*
X29477Y82462D01*
X29317Y82364D01*
X29156Y82270D01*
X28992Y82180D01*
X28826Y82094D01*
X28658Y82012D01*
X28488Y81934D01*
X28316Y81860D01*
X28142Y81791D01*
X27967Y81725D01*
X27790Y81665D01*
X27612Y81608D01*
X27432Y81556D01*
X27252Y81508D01*
X27070Y81465D01*
X26887Y81426D01*
X26703Y81392D01*
X26518Y81362D01*
X26333Y81337D01*
X26147Y81317D01*
X25961Y81301D01*
X25774Y81289D01*
X25587Y81282D01*
X25400Y81280D01*
X25213Y81282D01*
X25026Y81289D01*
X24839Y81301D01*
X24653Y81317D01*
X24467Y81337D01*
X24282Y81362D01*
X24097Y81392D01*
X23913Y81426D01*
X23730Y81465D01*
X23548Y81508D01*
X23368Y81556D01*
X23188Y81608D01*
X23010Y81665D01*
X22833Y81725D01*
X22658Y81791D01*
X22484Y81860D01*
X22312Y81934D01*
X22142Y82012D01*
X21974Y82094D01*
X21808Y82180D01*
X21644Y82270D01*
X21483Y82364D01*
X21323Y82462D01*
X21167Y82564D01*
X21012Y82670D01*
X20861Y82780D01*
X20712Y82893D01*
X20566Y83010D01*
X20423Y83130D01*
X20283Y83254D01*
X20146Y83381D01*
X20012Y83512D01*
X19881Y83646D01*
X19754Y83783D01*
X19630Y83923D01*
X19510Y84066D01*
X19393Y84212D01*
X19280Y84361D01*
X19170Y84512D01*
X19064Y84667D01*
X18962Y84823D01*
X18864Y84983D01*
X18770Y85144D01*
X18680Y85308D01*
X18594Y85474D01*
X18512Y85642D01*
X18434Y85812D01*
X18360Y85984D01*
X18291Y86158D01*
X18225Y86333D01*
X18165Y86510D01*
X18108Y86688D01*
X18056Y86868D01*
X18008Y87048D01*
X17965Y87230D01*
X17926Y87413D01*
X17892Y87597D01*
X17862Y87782D01*
X17837Y87967D01*
X17817Y88153D01*
X17801Y88339D01*
X17789Y88526D01*
X17782Y88713D01*
X17780Y88900D01*
D19*
X25400Y88900D03*
D20*
X689610Y152400D03*
X707390Y152400D03*
M02*
