M48
;GenerationSoftware,Autodesk,EAGLE,9.6.2*%
;CreationDate,2023-12-15T23:13:35Z*%
FMAT,2
ICI,OFF
METRIC,TZ,000.000
T6C0.305
T5C0.889
T4C1.016
T3C1.400
T2C2.000
T1C3.175
%
G90
M71
T1
X3048Y3048
X73025Y3048
X72517Y47752
X3048Y47752
T2
X52324Y44450
X8636Y44450
X52324Y21590
X8636Y21590
T3
X24484Y8850
X24484Y3850
X36984Y3850
X36984Y8850
X60298Y40600
X20982Y8850
X20982Y3850
X8482Y3850
X8482Y8850
X53240Y9104
X60298Y35600
X72798Y35600
X72798Y40600
X60298Y25614
X60298Y20614
X72798Y20614
X72798Y25614
X56107Y10120
X56107Y5120
X68607Y5120
X68607Y10120
X40740Y9104
X40740Y4104
X53240Y4104
T4
X34544Y44450
X29464Y44450
X26924Y44450
X32004Y44450
T5
X31428Y16484
X28888Y13944
X28888Y16484
X26348Y13944
X26348Y16484
X23808Y13944
X23808Y16484
X21268Y13944
X21268Y16484
X18728Y13944
X18728Y16484
X16188Y13944
X16188Y16484
X13648Y13944
X13648Y16484
X11108Y13944
X11108Y16484
X8568Y13944
X8568Y16484
X6028Y13944
X6028Y16484
X49208Y39344
X49208Y41884
X46668Y39344
X46668Y41884
X44128Y39344
X44128Y41884
X41588Y39344
X41588Y41884
X39048Y39344
X39048Y41884
X36508Y39344
X36508Y41884
X33968Y39344
X33968Y41884
X31428Y39344
X31428Y41884
X28888Y39344
X28888Y41884
X26348Y39344
X26348Y41884
X23808Y39344
X23808Y41884
X21268Y39344
X21268Y41884
X18728Y39344
X18728Y41884
X16188Y39344
X16188Y41884
X13648Y39344
X13648Y41884
X11108Y39344
X11108Y41884
X8568Y39344
X8568Y41884
X6028Y39344
X6028Y41884
X31428Y13944
X33968Y16484
X33968Y13944
X36508Y16484
X36508Y13944
X39048Y16484
X39048Y13944
X41588Y16484
X41588Y13944
X44128Y16484
X44128Y13944
X46668Y16484
X46668Y13944
X49208Y16484
X49208Y13944
T6
X57658Y37846
X57658Y23368
X55118Y18034
X38735Y10541
X22733Y10795
X6096Y11430
X35560Y33782
X39370Y33782
X67056Y15240
X39243Y44958
X43180Y44704
X49530Y44577
X54737Y46863
M30